999
DXF data, created by "Potrace" "1.11", written by Peter Selinger 2001-2013
  0
SECTION
  2
HEADER
  9
$ACADVER
  1
AC1006
  9
$EXTMIN
 10
0.000000
 20
0.000000
 30
0.000000
  9
$EXTMAX
 10
747.000000
 20
938.000000
 30
0.000000
  0
ENDSEC
  0
SECTION
  2
ENTITIES
  0
POLYLINE
  8
0
 66
1
 70
1
  0
VERTEX
  8
0
 10
170.286331
 20
928.313571
 42
-0.025165
  0
VERTEX
  8
0
 10
168.859526
 20
926.085188
 42
-0.129479
  0
VERTEX
  8
0
 10
167.741589
 20
925.156040
 42
-0.105533
  0
VERTEX
  8
0
 10
166.200263
 20
924.802258
 42
-0.014029
  0
VERTEX
  8
0
 10
162.839774
 20
924.845010
 42
0.127381
  0
VERTEX
  8
0
 10
154.579330
 20
923.061730
 42
0.150165
  0
VERTEX
  8
0
 10
148.825308
 20
917.547516
 42
0.144028
  0
VERTEX
  8
0
 10
147.017512
 20
909.556513
 42
0.114410
  0
VERTEX
  8
0
 10
149.571049
 20
901.044049
 42
-0.012494
  0
VERTEX
  8
0
 10
151.125481
 20
898.159574
 42
-0.092886
  0
VERTEX
  8
0
 10
151.560306
 20
896.670163
 42
-0.110308
  0
VERTEX
  8
0
 10
151.385661
 20
895.232889
 42
-0.020750
  0
VERTEX
  8
0
 10
150.392172
 20
892.760880
 42
0.015423
  0
VERTEX
  8
0
 10
149.541329
 20
890.707287
 42
0.069138
  0
VERTEX
  8
0
 10
149.253026
 20
889.441169
 42
0.121875
  0
VERTEX
  8
0
 10
149.398153
 20
888.522749
 42
0.104379
  0
VERTEX
  8
0
 10
149.958169
 20
887.716831
 42
0.044604
  0
VERTEX
  8
0
 10
150.519441
 20
887.275475
 42
0.112511
  0
VERTEX
  8
0
 10
151.004253
 20
887.096781
 42
0.181166
  0
VERTEX
  8
0
 10
151.377156
 20
887.183853
 42
0.156438
  0
VERTEX
  8
0
 10
151.628967
 20
887.500000
 42
-0.030672
  0
VERTEX
  8
0
 10
151.884020
 20
888.065702
 42
-0.005124
  0
VERTEX
  8
0
 10
152.450313
 20
889.114374
 42
-0.005599
  0
VERTEX
  8
0
 10
153.143429
 20
890.334567
 42
-0.004938
  0
VERTEX
  8
0
 10
153.892871
 20
891.591486
 42
-0.034653
  0
VERTEX
  8
0
 10
155.169193
 20
893.391384
 42
-0.132953
  0
VERTEX
  8
0
 10
156.276501
 20
894.182486
 42
-0.094806
  0
VERTEX
  8
0
 10
157.832619
 20
894.444716
 42
-0.012962
  0
VERTEX
  8
0
 10
161.138903
 20
894.285817
 42
0.055877
  0
VERTEX
  8
0
 10
165.523058
 20
894.451146
 42
0.079057
  0
VERTEX
  8
0
 10
169.239802
 20
895.629919
 42
0.080268
  0
VERTEX
  8
0
 10
172.366868
 20
897.886509
 42
0.059565
  0
VERTEX
  8
0
 10
175.005402
 20
901.240860
 42
0.098673
  0
VERTEX
  8
0
 10
176.748748
 20
906.004684
 42
0.068452
  0
VERTEX
  8
0
 10
176.848898
 20
911.754009
 42
0.070190
  0
VERTEX
  8
0
 10
175.416100
 20
917.152556
 42
0.120198
  0
VERTEX
  8
0
 10
172.652608
 20
920.873347
 42
-0.101240
  0
VERTEX
  8
0
 10
171.980707
 20
921.710579
 42
-0.160785
  0
VERTEX
  8
0
 10
171.839527
 20
922.610297
 42
-0.077045
  0
VERTEX
  8
0
 10
172.257246
 20
923.883666
 42
-0.011450
  0
VERTEX
  8
0
 10
173.541152
 20
926.269630
 42
0.014979
  0
VERTEX
  8
0
 10
174.623304
 20
928.315123
 42
0.056338
  0
VERTEX
  8
0
 10
175.112103
 20
929.679129
 42
0.109996
  0
VERTEX
  8
0
 10
175.123532
 20
930.598636
 42
0.202170
  0
VERTEX
  8
0
 10
174.704480
 20
931.203803
 42
0.062922
  0
VERTEX
  8
0
 10
173.464056
 20
931.788542
 42
0.227332
  0
VERTEX
  8
0
 10
172.621489
 20
931.676470
 42
0.108416
  0
VERTEX
  8
0
 10
171.794043
 20
930.832488
 42
0.010080
  0
SEQEND
  0
POLYLINE
  8
0
 66
1
 70
1
  0
VERTEX
  8
0
 10
164.708866
 20
921.201093
 42
-0.325840
  0
VERTEX
  8
0
 10
165.029812
 20
920.384946
 42
-0.034281
  0
VERTEX
  8
0
 10
164.337730
 20
918.323125
 42
-0.024327
  0
VERTEX
  8
0
 10
162.880052
 20
915.235064
 42
-0.006789
  0
VERTEX
  8
0
 10
160.301606
 20
910.551501
 42
0.000000
  0
VERTEX
  8
0
 10
154.685481
 20
900.670191
 42
0.000000
  0
VERTEX
  8
0
 10
152.842741
 20
902.945880
 42
-0.111253
  0
VERTEX
  8
0
 10
151.599178
 20
905.461766
 42
-0.044632
  0
VERTEX
  8
0
 10
151.028823
 20
909.280395
 42
-0.044613
  0
VERTEX
  8
0
 10
151.147202
 20
913.211122
 42
-0.093300
  0
VERTEX
  8
0
 10
152.063822
 20
916.119252
 42
-0.106656
  0
VERTEX
  8
0
 10
154.394729
 20
918.864773
 42
-0.068169
  0
VERTEX
  8
0
 10
158.044550
 20
920.946081
 42
-0.071643
  0
VERTEX
  8
0
 10
161.874946
 20
921.879743
 42
-0.167077
  0
SEQEND
  0
POLYLINE
  8
0
 66
1
 70
1
  0
VERTEX
  8
0
 10
171.474320
 20
916.049660
 42
-0.046935
  0
VERTEX
  8
0
 10
172.060222
 20
914.597311
 42
-0.022141
  0
VERTEX
  8
0
 10
172.551831
 20
912.634154
 42
-0.021716
  0
VERTEX
  8
0
 10
172.888374
 20
910.517424
 42
-0.028569
  0
VERTEX
  8
0
 10
173.000000
 20
908.565436
 42
-0.080785
  0
VERTEX
  8
0
 10
172.348817
 20
904.561376
 42
-0.089553
  0
VERTEX
  8
0
 10
170.467562
 20
901.126480
 42
-0.092887
  0
VERTEX
  8
0
 10
167.571885
 20
898.658343
 42
-0.094856
  0
VERTEX
  8
0
 10
164.000000
 20
897.429013
 42
-0.059795
  0
VERTEX
  8
0
 10
160.244050
 20
897.343072
 42
-0.377391
  0
VERTEX
  8
0
 10
159.039489
 20
898.629628
 42
-0.127649
  0
VERTEX
  8
0
 10
159.688687
 20
901.490273
 42
-0.008834
  0
VERTEX
  8
0
 10
163.649111
 20
908.831059
 42
-0.002025
  0
VERTEX
  8
0
 10
165.863195
 20
912.729880
 42
-0.003316
  0
VERTEX
  8
0
 10
167.774226
 20
916.012874
 42
-0.000508
  0
VERTEX
  8
0
 10
169.485075
 20
918.900942
 42
-0.264678
  0
VERTEX
  8
0
 10
169.659096
 20
919.000000
 42
-0.254501
  0
VERTEX
  8
0
 10
169.820465
 20
918.912174
 42
-0.005598
  0
VERTEX
  8
0
 10
170.311755
 20
918.133338
 42
-0.011337
  0
VERTEX
  8
0
 10
170.868618
 20
917.180506
 42
-0.007243
  0
SEQEND
  0
POLYLINE
  8
0
 66
1
 70
1
  0
VERTEX
  8
0
 10
208.383144
 20
925.227764
 42
0.093310
  0
VERTEX
  8
0
 10
206.470438
 20
922.957736
 42
0.056863
  0
VERTEX
  8
0
 10
205.099184
 20
919.718858
 42
0.045689
  0
VERTEX
  8
0
 10
204.269118
 20
915.528840
 42
0.026071
  0
VERTEX
  8
0
 10
204.000000
 20
910.371013
 42
0.036581
  0
VERTEX
  8
0
 10
204.371580
 20
905.298920
 42
0.042745
  0
VERTEX
  8
0
 10
205.479971
 20
900.601011
 42
0.047731
  0
VERTEX
  8
0
 10
207.104524
 20
896.888875
 42
0.143852
  0
VERTEX
  8
0
 10
209.054511
 20
894.970827
 42
0.084581
  0
VERTEX
  8
0
 10
211.470371
 20
894.163159
 42
0.064609
  0
VERTEX
  8
0
 10
214.261446
 20
894.093817
 42
0.063734
  0
VERTEX
  8
0
 10
217.017407
 20
894.743455
 42
0.077084
  0
VERTEX
  8
0
 10
219.330697
 20
896.045486
 42
0.158815
  0
VERTEX
  8
0
 10
222.809094
 20
901.248658
 42
0.064126
  0
VERTEX
  8
0
 10
224.068352
 20
909.800052
 42
0.063252
  0
VERTEX
  8
0
 10
223.111527
 20
918.608326
 42
0.130648
  0
VERTEX
  8
0
 10
219.849568
 20
924.660128
 42
0.111005
  0
VERTEX
  8
0
 10
217.446742
 20
926.288176
 42
0.081413
  0
VERTEX
  8
0
 10
214.288956
 20
926.967612
 42
0.080436
  0
VERTEX
  8
0
 10
211.042137
 20
926.605524
 42
0.103606
  0
SEQEND
  0
POLYLINE
  8
0
 66
1
 70
1
  0
VERTEX
  8
0
 10
217.443296
 20
920.777494
 42
-0.080284
  0
VERTEX
  8
0
 10
218.156472
 20
919.304076
 42
-0.035074
  0
VERTEX
  8
0
 10
218.632706
 20
917.178852
 42
-0.026235
  0
VERTEX
  8
0
 10
218.913215
 20
914.321773
 42
-0.011353
  0
VERTEX
  8
0
 10
219.000000
 20
910.500000
 42
-0.024041
  0
VERTEX
  8
0
 10
218.725519
 20
904.794660
 42
-0.071210
  0
VERTEX
  8
0
 10
217.802261
 20
900.994347
 42
-0.123362
  0
VERTEX
  8
0
 10
216.223589
 20
898.810819
 42
-0.176634
  0
VERTEX
  8
0
 10
214.000000
 20
898.000000
 42
-0.176634
  0
VERTEX
  8
0
 10
211.776411
 20
898.810819
 42
-0.123362
  0
VERTEX
  8
0
 10
210.197739
 20
900.994347
 42
-0.071210
  0
VERTEX
  8
0
 10
209.274481
 20
904.794660
 42
-0.024041
  0
VERTEX
  8
0
 10
209.000000
 20
910.500000
 42
-0.024041
  0
VERTEX
  8
0
 10
209.274481
 20
916.205340
 42
-0.071210
  0
VERTEX
  8
0
 10
210.197739
 20
920.005653
 42
-0.123362
  0
VERTEX
  8
0
 10
211.776411
 20
922.189181
 42
-0.176634
  0
VERTEX
  8
0
 10
214.000000
 20
923.000000
 42
-0.095182
  0
VERTEX
  8
0
 10
214.835567
 20
922.839483
 42
-0.048436
  0
VERTEX
  8
0
 10
215.789687
 20
922.347139
 42
-0.045695
  0
VERTEX
  8
0
 10
216.708050
 20
921.627744
 42
-0.051033
  0
SEQEND
  0
POLYLINE
  8
0
 66
1
 70
1
  0
VERTEX
  8
0
 10
187.830857
 20
920.250000
 42
0.013962
  0
VERTEX
  8
0
 10
180.895807
 20
912.544963
 42
0.156062
  0
VERTEX
  8
0
 10
179.326295
 20
908.783548
 42
0.374068
  0
VERTEX
  8
0
 10
180.886050
 20
906.645343
 42
0.056224
  0
VERTEX
  8
0
 10
186.606989
 20
906.000000
 42
0.000000
  0
VERTEX
  8
0
 10
193.000000
 20
906.000000
 42
0.000000
  0
VERTEX
  8
0
 10
193.000000
 20
900.500000
 42
0.009792
  0
VERTEX
  8
0
 10
193.061504
 20
897.359853
 42
0.077556
  0
VERTEX
  8
0
 10
193.340909
 20
895.937500
 42
0.189837
  0
VERTEX
  8
0
 10
193.945848
 20
895.253284
 42
0.118451
  0
VERTEX
  8
0
 10
195.000000
 20
895.000000
 42
0.118451
  0
VERTEX
  8
0
 10
196.054152
 20
895.253284
 42
0.189837
  0
VERTEX
  8
0
 10
196.659091
 20
895.937500
 42
0.077556
  0
VERTEX
  8
0
 10
196.938496
 20
897.359853
 42
0.009792
  0
VERTEX
  8
0
 10
197.000000
 20
900.500000
 42
-0.009792
  0
VERTEX
  8
0
 10
197.061504
 20
903.640147
 42
-0.077556
  0
VERTEX
  8
0
 10
197.340909
 20
905.062500
 42
-0.189837
  0
VERTEX
  8
0
 10
197.945848
 20
905.746716
 42
-0.118451
  0
VERTEX
  8
0
 10
199.000000
 20
906.000000
 42
0.072254
  0
VERTEX
  8
0
 10
199.873159
 20
906.126841
 42
0.124864
  0
VERTEX
  8
0
 10
200.500000
 20
906.500000
 42
0.124864
  0
VERTEX
  8
0
 10
200.873159
 20
907.126841
 42
0.072254
  0
VERTEX
  8
0
 10
201.000000
 20
908.000000
 42
0.072254
  0
VERTEX
  8
0
 10
200.873159
 20
908.873159
 42
0.124864
  0
VERTEX
  8
0
 10
200.500000
 20
909.500000
 42
0.124864
  0
VERTEX
  8
0
 10
199.873159
 20
909.873159
 42
0.072254
  0
VERTEX
  8
0
 10
199.000000
 20
910.000000
 42
-0.157888
  0
VERTEX
  8
0
 10
197.921799
 20
910.349175
 42
-0.176663
  0
VERTEX
  8
0
 10
197.312500
 20
911.250000
 42
-0.055952
  0
VERTEX
  8
0
 10
197.051385
 20
913.198839
 42
-0.005351
  0
VERTEX
  8
0
 10
197.000000
 20
918.000000
 42
0.005739
  0
VERTEX
  8
0
 10
196.946714
 20
922.642147
 42
0.051053
  0
VERTEX
  8
0
 10
196.692257
 20
924.667620
 42
0.154328
  0
VERTEX
  8
0
 10
196.125838
 20
925.627219
 42
0.184896
  0
VERTEX
  8
0
 10
195.152220
 20
926.000000
 42
0.149084
  0
VERTEX
  8
0
 10
194.135031
 20
925.689812
 42
0.018448
  0
VERTEX
  8
0
 10
192.239361
 20
924.310938
 42
0.020465
  0
VERTEX
  8
0
 10
190.062038
 20
922.451991
 42
0.015605
  0
SEQEND
  0
POLYLINE
  8
0
 66
1
 70
1
  0
VERTEX
  8
0
 10
192.663264
 20
910.329931
 42
-0.180234
  0
VERTEX
  8
0
 10
192.298663
 20
910.163264
 42
-0.010625
  0
VERTEX
  8
0
 10
191.062839
 20
910.100339
 42
-0.014945
  0
VERTEX
  8
0
 10
189.555294
 20
910.100735
 42
-0.010380
  0
VERTEX
  8
0
 10
187.854083
 20
910.187416
 42
0.000000
  0
VERTEX
  8
0
 10
183.500000
 20
910.500000
 42
0.000000
  0
VERTEX
  8
0
 10
188.000000
 20
915.393270
 42
0.000000
  0
VERTEX
  8
0
 10
192.500000
 20
920.286540
 42
0.000000
  0
VERTEX
  8
0
 10
192.809181
 20
915.535784
 42
-0.009467
  0
VERTEX
  8
0
 10
192.894593
 20
913.682516
 42
-0.013786
  0
VERTEX
  8
0
 10
192.893855
 20
912.046878
 42
-0.009242
  0
VERTEX
  8
0
 10
192.831212
 20
910.700828
 42
-0.182076
  0
SEQEND
  0
POLYLINE
  8
0
 66
1
 70
1
  0
VERTEX
  8
0
 10
7.996182
 20
888.750000
 42
-0.000786
  0
VERTEX
  8
0
 10
7.977720
 20
878.716840
 42
-0.000029
  0
VERTEX
  8
0
 10
7.847091
 20
841.085938
 42
-0.000053
  0
VERTEX
  8
0
 10
7.685208
 20
796.574677
 42
-0.000037
  0
VERTEX
  8
0
 10
7.493998
 20
746.500000
 42
0.000300
  0
VERTEX
  8
0
 10
7.269694
 20
678.394232
 42
0.000081
  0
VERTEX
  8
0
 10
6.996784
 20
570.565304
 42
0.000082
  0
VERTEX
  8
0
 10
6.727064
 20
448.186056
 42
0.000085
  0
VERTEX
  8
0
 10
6.501189
 20
327.318056
 42
0.000121
  0
VERTEX
  8
0
 10
6.249721
 20
154.618567
 42
0.001220
  0
VERTEX
  8
0
 10
6.337997
 20
82.650073
 42
0.000360
  0
VERTEX
  8
0
 10
6.538002
 20
37.053148
 42
0.197586
  0
VERTEX
  8
0
 10
7.574801
 20
34.568056
 42
0.190809
  0
VERTEX
  8
0
 10
9.839383
 20
33.588336
 42
0.003403
  0
VERTEX
  8
0
 10
23.322899
 20
33.258968
 42
0.003971
  0
VERTEX
  8
0
 10
45.514176
 20
33.044251
 42
0.000433
  0
VERTEX
  8
0
 10
96.571429
 20
33.000000
 42
0.000000
  0
VERTEX
  8
0
 10
184.000000
 20
33.000000
 42
0.000000
  0
VERTEX
  8
0
 10
184.000000
 20
23.000000
 42
0.008055
  0
VERTEX
  8
0
 10
184.065757
 20
18.918453
 42
0.016864
  0
VERTEX
  8
0
 10
184.275000
 20
15.750000
 42
0.012451
  0
VERTEX
  8
0
 10
184.573367
 20
13.367196
 42
0.371083
  0
VERTEX
  8
0
 10
185.000000
 20
13.000000
 42
0.372280
  0
VERTEX
  8
0
 10
185.427962
 20
13.369911
 42
0.012004
  0
VERTEX
  8
0
 10
185.725592
 20
15.812482
 42
0.016498
  0
VERTEX
  8
0
 10
185.934412
 20
19.057941
 42
0.007817
  0
VERTEX
  8
0
 10
185.999927
 20
23.250000
 42
0.000000
  0
VERTEX
  8
0
 10
185.999854
 20
33.500000
 42
0.000000
  0
VERTEX
  8
0
 10
274.249927
 20
33.745153
 42
0.000063
  0
VERTEX
  8
0
 10
523.517036
 20
34.468774
 42
0.000546
  0
VERTEX
  8
0
 10
634.174900
 20
34.924659
 42
0.000044
  0
VERTEX
  8
0
 10
707.310393
 20
35.312308
 42
0.412636
  0
VERTEX
  8
0
 10
708.000000
 20
36.005641
 42
0.384140
  0
VERTEX
  8
0
 10
707.606064
 20
36.442728
 42
0.007559
  0
VERTEX
  8
0
 10
704.355853
 20
36.731586
 42
0.012704
  0
VERTEX
  8
0
 10
700.103080
 20
36.936374
 42
0.005678
  0
VERTEX
  8
0
 10
694.500000
 20
37.000000
 42
-0.006180
  0
VERTEX
  8
0
 10
689.323624
 20
37.063983
 42
-0.010277
  0
VERTEX
  8
0
 10
684.965625
 20
37.261414
 42
-0.004179
  0
VERTEX
  8
0
 10
681.329884
 20
37.531620
 42
-0.390239
  0
VERTEX
  8
0
 10
681.000000
 20
37.889921
 42
-0.045437
  0
VERTEX
  8
0
 10
681.058256
 20
38.529649
 42
-0.001168
  0
VERTEX
  8
0
 10
681.586839
 20
41.370509
 42
-0.002473
  0
VERTEX
  8
0
 10
682.232265
 20
44.704186
 42
-0.001685
  0
VERTEX
  8
0
 10
682.997748
 20
48.489056
 42
0.006838
  0
VERTEX
  8
0
 10
683.722885
 20
52.274818
 42
0.010148
  0
VERTEX
  8
0
 10
684.245108
 20
55.610817
 42
0.005673
  0
VERTEX
  8
0
 10
684.593090
 20
58.410929
 42
0.168022
  0
VERTEX
  8
0
 10
684.438731
 20
59.099135
 42
0.120076
  0
VERTEX
  8
0
 10
684.087846
 20
59.445015
 42
0.048302
  0
VERTEX
  8
0
 10
683.475352
 20
59.735371
 42
0.044153
  0
VERTEX
  8
0
 10
682.724779
 20
59.933353
 42
0.042439
  0
VERTEX
  8
0
 10
681.940983
 20
60.000000
 42
-0.411338
  0
VERTEX
  8
0
 10
680.547675
 20
61.379683
 42
-0.000754
  0
VERTEX
  8
0
 10
680.251703
 20
96.958204
 42
-0.001611
  0
VERTEX
  8
0
 10
680.034207
 20
157.580543
 42
-0.000091
  0
VERTEX
  8
0
 10
680.000000
 20
345.000000
 42
0.000000
  0
VERTEX
  8
0
 10
680.000000
 20
630.000000
 42
0.000000
  0
VERTEX
  8
0
 10
682.500000
 20
630.000000
 42
0.015164
  0
VERTEX
  8
0
 10
683.458397
 20
630.029074
 42
0.024829
  0
VERTEX
  8
0
 10
684.265625
 20
630.118475
 42
0.022086
  0
VERTEX
  8
0
 10
684.876796
 20
630.244986
 42
0.343228
  0
VERTEX
  8
0
 10
685.000000
 20
630.403320
 42
0.047714
  0
VERTEX
  8
0
 10
684.970241
 20
630.714457
 42
0.000276
  0
VERTEX
  8
0
 10
684.415265
 20
633.580627
 42
0.001170
  0
VERTEX
  8
0
 10
683.772433
 20
636.849828
 42
0.000744
  0
VERTEX
  8
0
 10
683.009413
 20
640.653320
 42
-0.001294
  0
VERTEX
  8
0
 10
682.245912
 20
644.481028
 42
-0.001938
  0
VERTEX
  8
0
 10
681.600795
 20
647.827850
 42
-0.000789
  0
VERTEX
  8
0
 10
681.063539
 20
650.699280
 42
-0.042735
  0
VERTEX
  8
0
 10
681.009413
 20
651.250000
 42
-0.398202
  0
VERTEX
  8
0
 10
681.289080
 20
651.553009
 42
-0.002997
  0
VERTEX
  8
0
 10
684.968390
 20
651.779688
 42
-0.008677
  0
VERTEX
  8
0
 10
689.324205
 20
651.946090
 42
-0.005208
  0
VERTEX
  8
0
 10
694.500000
 20
652.000000
 42
0.003511
  0
VERTEX
  8
0
 10
701.880669
 20
652.051821
 42
0.024158
  0
VERTEX
  8
0
 10
705.500000
 20
652.277778
 42
0.054088
  0
VERTEX
  8
0
 10
707.431572
 20
652.707136
 42
0.321430
  0
VERTEX
  8
0
 10
708.000000
 20
653.500000
 42
0.410982
  0
VERTEX
  8
0
 10
707.039637
 20
654.471031
 42
0.000588
  0
VERTEX
  8
0
 10
679.000000
 20
654.747826
 42
0.001957
  0
VERTEX
  8
0
 10
635.317774
 20
654.956696
 42
0.000217
  0
VERTEX
  8
0
 10
535.500000
 20
655.000000
 42
0.000000
  0
VERTEX
  8
0
 10
363.000000
 20
655.000000
 42
0.000000
  0
VERTEX
  8
0
 10
363.000000
 20
779.000000
 42
0.000304
  0
VERTEX
  8
0
 10
362.956425
 20
850.618475
 42
0.002720
  0
VERTEX
  8
0
 10
362.746976
 20
882.083333
 42
0.001124
  0
VERTEX
  8
0
 10
362.460488
 20
902.055316
 42
0.409363
  0
VERTEX
  8
0
 10
361.500000
 20
903.000000
 42
0.321430
  0
VERTEX
  8
0
 10
360.707136
 20
902.431572
 42
0.054088
  0
VERTEX
  8
0
 10
360.277778
 20
900.500000
 42
0.024158
  0
VERTEX
  8
0
 10
360.051821
 20
896.880669
 42
0.003511
  0
VERTEX
  8
0
 10
360.000000
 20
889.500000
 42
-0.004730
  0
VERTEX
  8
0
 10
359.901135
 20
879.050290
 42
-0.170580
  0
VERTEX
  8
0
 10
359.071098
 20
876.823723
 42
-0.266983
  0
VERTEX
  8
0
 10
357.144232
 20
876.111038
 42
-0.012246
  0
VERTEX
  8
0
 10
350.000000
 20
877.500000
 42
0.010287
  0
VERTEX
  8
0
 10
343.892771
 20
878.712197
 42
0.054305
  0
VERTEX
  8
0
 10
340.490769
 20
878.940000
 42
0.141194
  0
VERTEX
  8
0
 10
338.706905
 20
878.344536
 42
0.246861
  0
VERTEX
  8
0
 10
338.000000
 20
877.000000
 42
-0.406965
  0
VERTEX
  8
0
 10
336.628759
 20
875.594309
 42
-0.002935
  0
VERTEX
  8
0
 10
318.625000
 20
875.253268
 42
-0.003102
  0
VERTEX
  8
0
 10
286.642986
 20
875.033654
 42
-0.000166
  0
VERTEX
  8
0
 10
185.000000
 20
875.000000
 42
-0.000166
  0
VERTEX
  8
0
 10
83.357014
 20
875.033654
 42
-0.003102
  0
VERTEX
  8
0
 10
51.375000
 20
875.253268
 42
-0.002935
  0
VERTEX
  8
0
 10
33.371241
 20
875.594309
 42
-0.406965
  0
VERTEX
  8
0
 10
32.000000
 20
877.000000
 42
0.233986
  0
VERTEX
  8
0
 10
31.338324
 20
878.336511
 42
0.162518
  0
VERTEX
  8
0
 10
29.715518
 20
878.890864
 42
0.047859
  0
VERTEX
  8
0
 10
26.320591
 20
878.588977
 42
0.005433
  0
VERTEX
  8
0
 10
18.750000
 20
877.092147
 42
0.000000
  0
VERTEX
  8
0
 10
10.000000
 20
875.263128
 42
0.000000
  0
VERTEX
  8
0
 10
10.000000
 20
889.131564
 42
0.005467
  0
VERTEX
  8
0
 10
9.936670
 20
894.923780
 42
0.012529
  0
VERTEX
  8
0
 10
9.731973
 20
899.282891
 42
0.007476
  0
VERTEX
  8
0
 10
9.442869
 20
902.600101
 42
0.384677
  0
VERTEX
  8
0
 10
9.000000
 20
903.000000
 42
0.385536
  0
VERTEX
  8
0
 10
8.555909
 20
902.597791
 42
0.007142
  0
VERTEX
  8
0
 10
8.266589
 20
899.186546
 42
0.012215
  0
VERTEX
  8
0
 10
8.060963
 20
894.709723
 42
0.005301
  0
SEQEND
  0
POLYLINE
  8
0
 66
1
 70
1
  0
VERTEX
  8
0
 10
21.815376
 20
869.496963
 42
0.004780
  0
VERTEX
  8
0
 10
28.026973
 20
868.287620
 42
0.058085
  0
VERTEX
  8
0
 10
30.444847
 20
868.126140
 42
0.217623
  0
VERTEX
  8
0
 10
31.551324
 20
868.699256
 42
0.167623
  0
VERTEX
  8
0
 10
32.000000
 20
870.000000
 42
-0.406965
  0
VERTEX
  8
0
 10
33.371241
 20
871.405691
 42
-0.002935
  0
VERTEX
  8
0
 10
51.375000
 20
871.746732
 42
-0.003102
  0
VERTEX
  8
0
 10
83.357014
 20
871.966346
 42
-0.000166
  0
VERTEX
  8
0
 10
185.000000
 20
872.000000
 42
-0.000166
  0
VERTEX
  8
0
 10
286.642986
 20
871.966346
 42
-0.003102
  0
VERTEX
  8
0
 10
318.625000
 20
871.746732
 42
-0.002935
  0
VERTEX
  8
0
 10
336.628759
 20
871.405691
 42
-0.406965
  0
VERTEX
  8
0
 10
338.000000
 20
870.000000
 42
0.233986
  0
VERTEX
  8
0
 10
338.661676
 20
868.663489
 42
0.162518
  0
VERTEX
  8
0
 10
340.284482
 20
868.109136
 42
0.047859
  0
VERTEX
  8
0
 10
343.679409
 20
868.411023
 42
0.005433
  0
VERTEX
  8
0
 10
351.250000
 20
869.907853
 42
0.000000
  0
VERTEX
  8
0
 10
360.000000
 20
871.736872
 42
0.000000
  0
VERTEX
  8
0
 10
360.000000
 20
763.368436
 42
0.000000
  0
VERTEX
  8
0
 10
360.000000
 20
655.000000
 42
0.000000
  0
VERTEX
  8
0
 10
344.000000
 20
655.000000
 42
0.000000
  0
VERTEX
  8
0
 10
328.000000
 20
655.000000
 42
0.000000
  0
VERTEX
  8
0
 10
328.000000
 20
731.000000
 42
0.000505
  0
VERTEX
  8
0
 10
327.955814
 20
774.710356
 42
0.004428
  0
VERTEX
  8
0
 10
327.745066
 20
794.083333
 42
0.002901
  0
VERTEX
  8
0
 10
327.438369
 20
806.090588
 42
0.405064
  0
VERTEX
  8
0
 10
326.500000
 20
807.000000
 42
0.321430
  0
VERTEX
  8
0
 10
325.707136
 20
806.431572
 42
0.054088
  0
VERTEX
  8
0
 10
325.277778
 20
804.500000
 42
0.024158
  0
VERTEX
  8
0
 10
325.051821
 20
800.880669
 42
0.003511
  0
VERTEX
  8
0
 10
325.000000
 20
793.500000
 42
-0.006180
  0
VERTEX
  8
0
 10
324.936017
 20
788.323624
 42
-0.010277
  0
VERTEX
  8
0
 10
324.738586
 20
783.965625
 42
-0.004179
  0
VERTEX
  8
0
 10
324.468380
 20
780.329884
 42
-0.390239
  0
VERTEX
  8
0
 10
324.110079
 20
780.000000
 42
-0.045444
  0
VERTEX
  8
0
 10
323.470262
 20
780.058272
 42
-0.001166
  0
VERTEX
  8
0
 10
320.626276
 20
780.587500
 42
-0.002470
  0
VERTEX
  8
0
 10
317.289066
 20
781.233653
 42
-0.001683
  0
VERTEX
  8
0
 10
313.500000
 20
782.000000
 42
0.000740
  0
VERTEX
  8
0
 10
309.745949
 20
782.766634
 42
0.001166
  0
VERTEX
  8
0
 10
306.520599
 20
783.412500
 42
0.000270
  0
VERTEX
  8
0
 10
303.690997
 20
783.970670
 42
0.048593
  0
VERTEX
  8
0
 10
303.389921
 20
784.000000
 42
0.346083
  0
VERTEX
  8
0
 10
303.236676
 20
783.879496
 42
0.020841
  0
VERTEX
  8
0
 10
303.114539
 20
783.265625
 42
0.024028
  0
VERTEX
  8
0
 10
303.028102
 20
782.458412
 42
0.014658
  0
VERTEX
  8
0
 10
303.000000
 20
781.500000
 42
0.000000
  0
VERTEX
  8
0
 10
303.000000
 20
779.000000
 42
0.000000
  0
VERTEX
  8
0
 10
185.500000
 20
779.000000
 42
-0.000226
  0
VERTEX
  8
0
 10
108.553619
 20
779.034854
 42
-0.003903
  0
VERTEX
  8
0
 10
83.384084
 20
779.254130
 42
-0.004260
  0
VERTEX
  8
0
 10
69.289878
 20
779.607079
 42
-0.404419
  0
VERTEX
  8
0
 10
68.000000
 20
780.940983
 42
0.036811
  0
VERTEX
  8
0
 10
67.942630
 20
781.719176
 42
0.040878
  0
VERTEX
  8
0
 10
67.771692
 20
782.452904
 42
0.044861
  0
VERTEX
  8
0
 10
67.521719
 20
783.043716
 42
0.132594
  0
VERTEX
  8
0
 10
67.222783
 20
783.362313
 42
0.170068
  0
VERTEX
  8
0
 10
66.618673
 20
783.495288
 42
0.004608
  0
VERTEX
  8
0
 10
63.891243
 20
783.140192
 42
0.009066
  0
VERTEX
  8
0
 10
60.659186
 20
782.629161
 42
0.006030
  0
VERTEX
  8
0
 10
56.972783
 20
781.931627
 42
-0.001787
  0
VERTEX
  8
0
 10
53.270764
 20
781.198542
 42
-0.002573
  0
VERTEX
  8
0
 10
49.988880
 20
780.578338
 42
-0.001353
  0
VERTEX
  8
0
 10
47.205827
 20
780.075001
 42
-0.040994
  0
VERTEX
  8
0
 10
46.500000
 20
780.008260
 42
-0.386205
  0
VERTEX
  8
0
 10
46.068020
 20
780.390805
 42
-0.011912
  0
VERTEX
  8
0
 10
45.848782
 20
782.961517
 42
-0.015764
  0
VERTEX
  8
0
 10
45.744782
 20
786.458606
 42
-0.006609
  0
VERTEX
  8
0
 10
45.815500
 20
791.168921
 42
0.007260
  0
VERTEX
  8
0
 10
45.919683
 20
798.767330
 42
0.028647
  0
VERTEX
  8
0
 10
45.648196
 20
803.435698
 42
0.048158
  0
VERTEX
  8
0
 10
45.050541
 20
806.217730
 42
0.326664
  0
VERTEX
  8
0
 10
43.980948
 20
807.000000
 42
0.410083
  0
VERTEX
  8
0
 10
43.511707
 20
806.537340
 42
0.000294
  0
VERTEX
  8
0
 10
43.253237
 20
787.441798
 42
0.002338
  0
VERTEX
  8
0
 10
43.058718
 20
763.921705
 42
0.000898
  0
VERTEX
  8
0
 10
43.000000
 20
731.238634
 42
0.000000
  0
VERTEX
  8
0
 10
43.000000
 20
655.477268
 42
0.000000
  0
VERTEX
  8
0
 10
26.500000
 20
639.000000
 42
0.000000
  0
VERTEX
  8
0
 10
10.000000
 20
622.522732
 42
0.000000
  0
VERTEX
  8
0
 10
10.000000
 20
747.280418
 42
0.000000
  0
VERTEX
  8
0
 10
10.000000
 20
872.038104
 42
0.000000
  0
VERTEX
  8
0
 10
12.250000
 20
871.516015
 42
0.004244
  0
VERTEX
  8
0
 10
13.548476
 20
871.226309
 42
0.000751
  0
VERTEX
  8
0
 10
15.987954
 20
870.707557
 42
0.000813
  0
VERTEX
  8
0
 10
18.849677
 20
870.108366
 42
0.000732
  0
SEQEND
  0
POLYLINE
  8
0
 66
1
 70
1
  0
VERTEX
  8
0
 10
302.819753
 20
774.010835
 42
0.063120
  0
VERTEX
  8
0
 10
303.090277
 20
773.082413
 42
0.153953
  0
VERTEX
  8
0
 10
303.552316
 20
772.550388
 42
0.142004
  0
VERTEX
  8
0
 10
304.263849
 20
772.354955
 42
0.050763
  0
VERTEX
  8
0
 10
305.319753
 20
772.477462
 42
-0.008272
  0
VERTEX
  8
0
 10
308.369245
 20
773.096892
 42
-0.000811
  0
VERTEX
  8
0
 10
315.751071
 20
774.457202
 42
-0.000203
  0
VERTEX
  8
0
 10
323.836472
 20
775.930229
 42
-0.044981
  0
VERTEX
  8
0
 10
324.610468
 20
776.000000
 42
-0.412265
  0
VERTEX
  8
0
 10
324.770732
 20
775.840799
 42
-0.000042
  0
VERTEX
  8
0
 10
324.885575
 20
758.375000
 42
-0.001015
  0
VERTEX
  8
0
 10
324.972009
 20
739.007046
 42
-0.000608
  0
VERTEX
  8
0
 10
325.000000
 20
716.000000
 42
0.000000
  0
VERTEX
  8
0
 10
325.000000
 20
656.000000
 42
0.000000
  0
VERTEX
  8
0
 10
300.013302
 20
656.000000
 42
0.000000
  0
VERTEX
  8
0
 10
275.026604
 20
656.000000
 42
0.000000
  0
VERTEX
  8
0
 10
274.763302
 20
689.750000
 42
0.002037
  0
VERTEX
  8
0
 10
274.589907
 20
704.351269
 42
0.005435
  0
VERTEX
  8
0
 10
274.310645
 20
714.761662
 42
0.001644
  0
VERTEX
  8
0
 10
273.977130
 20
722.896043
 42
0.473474
  0
VERTEX
  8
0
 10
273.500000
 20
723.252867
 42
0.312311
  0
VERTEX
  8
0
 10
273.067761
 20
722.763107
 42
0.006262
  0
VERTEX
  8
0
 10
272.701818
 20
719.295547
 42
0.011849
  0
VERTEX
  8
0
 10
272.401030
 20
714.938378
 42
0.006159
  0
VERTEX
  8
0
 10
272.221703
 20
709.490917
 42
-0.002130
  0
VERTEX
  8
0
 10
271.999720
 20
700.559507
 42
-0.040242
  0
VERTEX
  8
0
 10
271.693793
 20
697.778099
 42
-0.203205
  0
VERTEX
  8
0
 10
270.980076
 20
696.714311
 42
-0.204449
  0
VERTEX
  8
0
 10
269.721703
 20
696.491087
 42
0.005924
  0
VERTEX
  8
0
 10
264.706604
 20
697.591138
 42
0.003626
  0
VERTEX
  8
0
 10
258.768053
 20
698.775344
 42
0.001832
  0
VERTEX
  8
0
 10
253.033645
 20
699.853887
 42
0.045593
  0
VERTEX
  8
0
 10
251.434624
 20
700.000000
 42
0.138211
  0
VERTEX
  8
0
 10
250.887547
 20
699.845831
 42
0.100129
  0
VERTEX
  8
0
 10
250.421421
 20
699.412500
 42
0.085861
  0
VERTEX
  8
0
 10
250.107580
 20
698.764371
 42
0.070026
  0
VERTEX
  8
0
 10
250.000000
 20
698.000000
 42
-0.387860
  0
VERTEX
  8
0
 10
248.805495
 20
696.691787
 42
-0.014953
  0
VERTEX
  8
0
 10
241.687500
 20
696.257752
 42
-0.007340
  0
VERTEX
  8
0
 10
228.028005
 20
696.034836
 42
-0.000410
  0
VERTEX
  8
0
 10
185.500000
 20
696.000000
 42
-0.000634
  0
VERTEX
  8
0
 10
149.300113
 20
696.045898
 42
-0.004950
  0
VERTEX
  8
0
 10
132.440278
 20
696.255585
 42
-0.003256
  0
VERTEX
  8
0
 10
121.849193
 20
696.561217
 42
-0.403894
  0
VERTEX
  8
0
 10
121.000000
 20
697.440983
 42
0.061980
  0
VERTEX
  8
0
 10
120.925696
 20
698.038107
 42
0.051301
  0
VERTEX
  8
0
 10
120.705704
 20
698.640562
 42
0.053311
  0
VERTEX
  8
0
 10
120.381686
 20
699.158357
 42
0.088115
  0
VERTEX
  8
0
 10
119.998141
 20
699.501149
 42
0.175891
  0
VERTEX
  8
0
 10
118.722360
 20
699.766883
 42
0.003510
  0
VERTEX
  8
0
 10
112.073047
 20
698.762723
 42
0.009142
  0
VERTEX
  8
0
 10
105.462676
 20
697.592673
 42
0.017837
  0
VERTEX
  8
0
 10
100.250000
 20
696.376887
 42
0.000000
  0
VERTEX
  8
0
 10
98.000000
 20
695.766737
 42
0.000000
  0
VERTEX
  8
0
 10
98.000000
 20
709.883369
 42
0.005356
  0
VERTEX
  8
0
 10
97.936781
 20
715.785394
 42
0.012325
  0
VERTEX
  8
0
 10
97.732290
 20
720.220842
 42
0.007262
  0
VERTEX
  8
0
 10
97.443666
 20
723.598527
 42
0.385286
  0
VERTEX
  8
0
 10
97.000000
 20
724.000000
 42
0.403851
  0
VERTEX
  8
0
 10
96.526608
 20
723.543126
 42
0.001526
  0
VERTEX
  8
0
 10
96.257353
 20
715.250000
 42
0.005325
  0
VERTEX
  8
0
 10
96.059586
 20
704.705622
 42
0.002026
  0
VERTEX
  8
0
 10
96.000000
 20
690.000000
 42
0.000000
  0
VERTEX
  8
0
 10
96.000000
 20
656.000000
 42
0.000000
  0
VERTEX
  8
0
 10
71.000000
 20
656.000000
 42
0.000000
  0
VERTEX
  8
0
 10
46.000000
 20
656.000000
 42
0.000000
  0
VERTEX
  8
0
 10
45.881517
 20
714.250000
 42
-0.000258
  0
VERTEX
  8
0
 10
45.827568
 20
749.800067
 42
-0.002407
  0
VERTEX
  8
0
 10
45.886050
 20
765.137829
 42
-0.001325
  0
VERTEX
  8
0
 10
45.993966
 20
774.707315
 42
-0.188616
  0
VERTEX
  8
0
 10
46.411941
 20
775.733538
 42
-0.247128
  0
VERTEX
  8
0
 10
46.624499
 20
775.805542
 42
-0.000793
  0
VERTEX
  8
0
 10
49.486445
 20
775.345106
 42
-0.004073
  0
VERTEX
  8
0
 10
52.742674
 20
774.788676
 42
-0.002507
  0
VERTEX
  8
0
 10
56.566871
 20
774.083271
 42
0.005456
  0
VERTEX
  8
0
 10
60.427835
 20
773.394599
 42
0.008260
  0
VERTEX
  8
0
 10
63.802456
 20
772.887748
 42
0.003921
  0
VERTEX
  8
0
 10
66.661140
 20
772.529357
 42
0.168145
  0
VERTEX
  8
0
 10
67.250000
 20
772.658750
 42
0.124597
  0
VERTEX
  8
0
 10
67.538096
 20
772.953839
 42
0.047513
  0
VERTEX
  8
0
 10
67.779675
 20
773.479846
 42
0.043303
  0
VERTEX
  8
0
 10
67.944524
 20
774.128070
 42
0.040648
  0
VERTEX
  8
0
 10
67.999957
 20
774.809017
 42
-0.407960
  0
VERTEX
  8
0
 10
69.100240
 20
775.933158
 42
-0.002257
  0
VERTEX
  8
0
 10
85.549382
 20
776.211335
 42
-0.003333
  0
VERTEX
  8
0
 10
113.121894
 20
776.369287
 42
-0.000272
  0
VERTEX
  8
0
 10
185.249957
 20
776.262380
 42
-0.000219
  0
VERTEX
  8
0
 10
263.060158
 20
776.070605
 42
-0.004061
  0
VERTEX
  8
0
 10
287.661683
 20
775.799349
 42
-0.004989
  0
VERTEX
  8
0
 10
301.251763
 20
775.403421
 42
-0.357747
  0
SEQEND
  0
POLYLINE
  8
0
 66
1
 70
1
  0
VERTEX
  8
0
 10
250.000000
 20
691.166667
 42
0.026276
  0
VERTEX
  8
0
 10
250.038950
 20
690.426021
 42
0.028824
  0
VERTEX
  8
0
 10
250.155437
 20
689.716438
 42
0.029988
  0
VERTEX
  8
0
 10
250.324822
 20
689.128051
 42
0.111747
  0
VERTEX
  8
0
 10
250.529147
 20
688.804186
 42
0.230212
  0
VERTEX
  8
0
 10
250.991472
 20
688.644351
 42
0.004825
  0
VERTEX
  8
0
 10
253.464608
 20
688.966001
 42
0.010204
  0
VERTEX
  8
0
 10
256.398384
 20
689.437612
 42
0.006571
  0
VERTEX
  8
0
 10
259.779147
 20
690.098103
 42
-0.010812
  0
VERTEX
  8
0
 10
268.773568
 20
691.776245
 42
-0.277915
  0
VERTEX
  8
0
 10
270.986537
 20
690.894108
 42
-0.160344
  0
VERTEX
  8
0
 10
271.904920
 20
688.224648
 42
-0.003342
  0
VERTEX
  8
0
 10
272.000000
 20
674.000000
 42
0.000000
  0
VERTEX
  8
0
 10
272.000000
 20
656.000000
 42
0.000000
  0
VERTEX
  8
0
 10
229.000000
 20
656.000000
 42
0.000000
  0
VERTEX
  8
0
 10
186.000000
 20
656.000000
 42
0.000000
  0
VERTEX
  8
0
 10
186.000000
 20
666.000000
 42
0.008055
  0
VERTEX
  8
0
 10
185.934243
 20
670.081547
 42
0.016864
  0
VERTEX
  8
0
 10
185.725000
 20
673.250000
 42
0.012451
  0
VERTEX
  8
0
 10
185.426633
 20
675.632804
 42
0.371083
  0
VERTEX
  8
0
 10
185.000000
 20
676.000000
 42
0.371083
  0
VERTEX
  8
0
 10
184.573367
 20
675.632804
 42
0.012451
  0
VERTEX
  8
0
 10
184.275000
 20
673.250000
 42
0.016864
  0
VERTEX
  8
0
 10
184.065757
 20
670.081547
 42
0.008055
  0
VERTEX
  8
0
 10
184.000000
 20
666.000000
 42
0.000000
  0
VERTEX
  8
0
 10
184.000000
 20
656.000000
 42
0.000000
  0
VERTEX
  8
0
 10
141.000000
 20
656.000000
 42
0.000000
  0
VERTEX
  8
0
 10
98.000000
 20
656.000000
 42
0.000000
  0
VERTEX
  8
0
 10
98.000000
 20
674.000000
 42
-0.003391
  0
VERTEX
  8
0
 10
98.096576
 20
688.238228
 42
-0.163323
  0
VERTEX
  8
0
 10
99.029693
 20
690.898496
 42
-0.275231
  0
VERTEX
  8
0
 10
101.266101
 20
691.772342
 42
-0.010320
  0
VERTEX
  8
0
 10
110.481745
 20
690.044793
 42
0.006323
  0
VERTEX
  8
0
 10
113.979272
 20
689.360163
 42
0.009472
  0
VERTEX
  8
0
 10
117.050778
 20
688.859078
 42
0.004973
  0
VERTEX
  8
0
 10
119.638111
 20
688.513376
 42
0.170745
  0
VERTEX
  8
0
 10
120.231745
 20
688.643226
 42
0.133584
  0
VERTEX
  8
0
 10
120.527281
 20
688.959430
 42
0.044562
  0
VERTEX
  8
0
 10
120.774325
 20
689.548723
 42
0.040614
  0
VERTEX
  8
0
 10
120.943302
 20
690.281228
 42
0.036400
  0
VERTEX
  8
0
 10
121.000000
 20
691.059017
 42
-0.390233
  0
VERTEX
  8
0
 10
122.166216
 20
692.325725
 42
-0.013121
  0
VERTEX
  8
0
 10
129.557646
 20
692.742477
 42
-0.007095
  0
VERTEX
  8
0
 10
143.508621
 20
692.964228
 42
-0.000426
  0
VERTEX
  8
0
 10
185.500000
 20
693.000000
 42
-0.000459
  0
VERTEX
  8
0
 10
226.444462
 20
692.962397
 42
-0.006645
  0
VERTEX
  8
0
 10
240.954545
 20
692.742894
 42
-0.010178
  0
VERTEX
  8
0
 10
248.890599
 20
692.355535
 42
-0.394109
  0
SEQEND
  0
POLYLINE
  8
0
 66
1
 70
1
  0
VERTEX
  8
0
 10
360.000000
 20
637.522611
 42
0.000000
  0
VERTEX
  8
0
 10
360.000000
 20
623.045221
 42
0.000000
  0
VERTEX
  8
0
 10
346.480731
 20
636.875213
 42
0.000050
  0
VERTEX
  8
0
 10
341.252158
 20
642.222882
 42
0.000078
  0
VERTEX
  8
0
 10
336.742574
 20
646.832818
 42
0.000021
  0
VERTEX
  8
0
 10
332.810122
 20
650.851178
 42
0.002690
  0
VERTEX
  8
0
 10
332.314064
 20
651.352602
 42
-0.646267
  0
VERTEX
  8
0
 10
332.412710
 20
651.613021
 42
-0.003340
  0
VERTEX
  8
0
 10
336.018298
 20
651.809827
 42
-0.007673
  0
VERTEX
  8
0
 10
340.444827
 20
651.953764
 42
-0.004290
  0
VERTEX
  8
0
 10
345.833333
 20
652.000000
 42
0.000000
  0
VERTEX
  8
0
 10
360.000000
 20
652.000000
 42
0.000000
  0
SEQEND
  0
POLYLINE
  8
0
 66
1
 70
1
  0
VERTEX
  8
0
 10
677.000000
 20
651.087968
 42
-0.040862
  0
VERTEX
  8
0
 10
676.948006
 20
650.452820
 42
-0.001600
  0
VERTEX
  8
0
 10
676.559425
 20
648.141443
 42
-0.002832
  0
VERTEX
  8
0
 10
676.074775
 20
645.407096
 42
-0.001995
  0
VERTEX
  8
0
 10
675.500171
 20
642.337968
 42
0.006309
  0
VERTEX
  8
0
 10
674.264198
 20
635.406155
 42
0.051125
  0
VERTEX
  8
0
 10
674.065517
 20
632.188623
 42
0.163778
  0
VERTEX
  8
0
 10
674.660938
 20
630.631190
 42
0.223871
  0
VERTEX
  8
0
 10
676.000000
 20
630.000000
 42
-0.411146
  0
VERTEX
  8
0
 10
677.446815
 20
628.568276
 42
-0.000867
  0
VERTEX
  8
0
 10
677.748246
 20
594.125000
 42
-0.001667
  0
VERTEX
  8
0
 10
677.966739
 20
534.815659
 42
-0.000088
  0
VERTEX
  8
0
 10
678.000000
 20
345.000000
 42
-0.000088
  0
VERTEX
  8
0
 10
677.966739
 20
155.184341
 42
-0.001667
  0
VERTEX
  8
0
 10
677.748246
 20
95.875000
 42
-0.000867
  0
VERTEX
  8
0
 10
677.446815
 20
61.431724
 42
-0.411146
  0
VERTEX
  8
0
 10
676.000000
 20
60.000000
 42
0.272261
  0
VERTEX
  8
0
 10
674.629505
 20
59.193991
 42
0.117811
  0
VERTEX
  8
0
 10
674.037551
 20
57.079669
 42
0.051483
  0
VERTEX
  8
0
 10
674.284166
 20
53.257471
 42
0.012302
  0
VERTEX
  8
0
 10
675.500000
 20
47.000000
 42
-0.004681
  0
VERTEX
  8
0
 10
676.049988
 20
44.383066
 42
-0.005515
  0
VERTEX
  8
0
 10
676.520074
 20
41.895312
 42
-0.004868
  0
VERTEX
  8
0
 10
676.873112
 20
39.788063
 42
-0.034060
  0
VERTEX
  8
0
 10
676.964871
 20
38.750000
 42
-0.399533
  0
VERTEX
  8
0
 10
675.945739
 20
37.634168
 42
-0.010069
  0
VERTEX
  8
0
 10
668.464137
 20
37.257392
 42
-0.006999
  0
VERTEX
  8
0
 10
654.988959
 20
37.039305
 42
-0.000546
  0
VERTEX
  8
0
 10
619.000000
 20
37.000000
 42
-0.001343
  0
VERTEX
  8
0
 10
596.114276
 20
37.061482
 42
-0.002492
  0
VERTEX
  8
0
 10
577.543580
 20
37.253836
 42
-0.000267
  0
VERTEX
  8
0
 10
561.373179
 20
37.510568
 42
-0.409416
  0
VERTEX
  8
0
 10
561.000000
 20
37.889921
 42
-0.045437
  0
VERTEX
  8
0
 10
561.058256
 20
38.529649
 42
-0.001168
  0
VERTEX
  8
0
 10
561.586839
 20
41.370509
 42
-0.002473
  0
VERTEX
  8
0
 10
562.232265
 20
44.704186
 42
-0.001685
  0
VERTEX
  8
0
 10
562.997748
 20
48.489056
 42
0.006838
  0
VERTEX
  8
0
 10
563.722885
 20
52.274818
 42
0.010148
  0
VERTEX
  8
0
 10
564.245108
 20
55.610817
 42
0.005673
  0
VERTEX
  8
0
 10
564.593090
 20
58.410929
 42
0.168022
  0
VERTEX
  8
0
 10
564.438731
 20
59.099135
 42
0.120076
  0
VERTEX
  8
0
 10
564.087846
 20
59.445015
 42
0.048302
  0
VERTEX
  8
0
 10
563.475352
 20
59.735371
 42
0.044153
  0
VERTEX
  8
0
 10
562.724779
 20
59.933353
 42
0.042439
  0
VERTEX
  8
0
 10
561.940983
 20
60.000000
 42
-0.411090
  0
VERTEX
  8
0
 10
560.550620
 20
61.375600
 42
-0.000855
  0
VERTEX
  8
0
 10
560.251814
 20
94.704191
 42
-0.001717
  0
VERTEX
  8
0
 10
560.034237
 20
151.622542
 42
-0.000097
  0
VERTEX
  8
0
 10
560.000000
 20
327.500000
 42
0.000000
  0
VERTEX
  8
0
 10
560.000000
 20
595.000000
 42
0.000000
  0
VERTEX
  8
0
 10
562.500000
 20
595.000000
 42
0.014658
  0
VERTEX
  8
0
 10
563.458412
 20
595.028102
 42
0.024028
  0
VERTEX
  8
0
 10
564.265625
 20
595.114539
 42
0.020841
  0
VERTEX
  8
0
 10
564.879496
 20
595.236676
 42
0.346083
  0
VERTEX
  8
0
 10
565.000000
 20
595.389921
 42
0.048605
  0
VERTEX
  8
0
 10
564.970655
 20
595.691079
 42
0.000268
  0
VERTEX
  8
0
 10
564.409663
 20
598.534385
 42
0.001161
  0
VERTEX
  8
0
 10
563.760680
 20
601.774885
 42
0.000737
  0
VERTEX
  8
0
 10
562.990344
 20
605.546931
 42
-0.004314
  0
VERTEX
  8
0
 10
562.248057
 20
609.319105
 42
-0.006867
  0
VERTEX
  8
0
 10
561.685400
 20
612.559314
 42
-0.002241
  0
VERTEX
  8
0
 10
561.253231
 20
615.348585
 42
-0.238006
  0
VERTEX
  8
0
 10
561.370054
 20
615.703387
 42
-0.186068
  0
VERTEX
  8
0
 10
561.733847
 20
615.864744
 42
-0.001143
  0
VERTEX
  8
0
 10
565.401445
 20
616.038191
 42
-0.004460
  0
VERTEX
  8
0
 10
569.617039
 20
616.190233
 42
-0.002802
  0
VERTEX
  8
0
 10
574.547170
 20
616.296377
 42
0.005236
  0
VERTEX
  8
0
 10
580.579159
 20
616.455617
 42
0.018121
  0
VERTEX
  8
0
 10
584.474606
 20
616.740890
 42
0.020692
  0
VERTEX
  8
0
 10
587.051069
 20
617.132177
 42
0.270718
  0
VERTEX
  8
0
 10
587.749354
 20
617.745681
 42
0.506806
  0
VERTEX
  8
0
 10
587.233883
 20
618.472356
 42
0.000565
  0
VERTEX
  8
0
 10
565.334868
 20
618.790631
 42
0.002353
  0
VERTEX
  8
0
 10
533.894469
 20
619.064069
 42
0.000432
  0
VERTEX
  8
0
 10
475.831894
 20
619.245681
 42
0.000000
  0
VERTEX
  8
0
 10
363.500000
 20
619.500000
 42
0.000000
  0
VERTEX
  8
0
 10
363.225229
 20
635.750000
 42
0.000000
  0
VERTEX
  8
0
 10
362.950457
 20
652.000000
 42
0.000000
  0
VERTEX
  8
0
 10
519.975229
 20
652.000000
 42
-0.000470
  0
VERTEX
  8
0
 10
583.926375
 20
651.939900
 42
-0.000982
  0
VERTEX
  8
0
 10
633.707429
 20
651.748548
 42
-0.000045
  0
VERTEX
  8
0
 10
676.594781
 20
651.495620
 42
-0.412461
  0
SEQEND
  0
POLYLINE
  8
0
 66
1
 70
1
  0
VERTEX
  8
0
 10
95.211067
 20
642.250000
 42
0.006611
  0
VERTEX
  8
0
 10
95.421186
 20
637.708175
 42
0.035570
  0
VERTEX
  8
0
 10
95.743112
 20
635.256489
 42
0.079408
  0
VERTEX
  8
0
 10
96.237928
 20
633.942507
 42
0.269279
  0
VERTEX
  8
0
 10
97.000000
 20
633.500000
 42
0.269279
  0
VERTEX
  8
0
 10
97.762072
 20
633.942507
 42
0.079408
  0
VERTEX
  8
0
 10
98.256888
 20
635.256489
 42
0.035570
  0
VERTEX
  8
0
 10
98.578814
 20
637.708175
 42
0.006611
  0
VERTEX
  8
0
 10
98.788933
 20
642.250000
 42
0.000000
  0
VERTEX
  8
0
 10
99.077866
 20
651.000000
 42
0.000000
  0
VERTEX
  8
0
 10
141.538933
 20
651.000000
 42
0.000000
  0
VERTEX
  8
0
 10
184.000000
 20
651.000000
 42
0.000000
  0
VERTEX
  8
0
 10
184.000000
 20
636.022062
 42
0.000000
  0
VERTEX
  8
0
 10
184.000000
 20
621.044123
 42
0.000000
  0
VERTEX
  8
0
 10
143.750000
 20
620.772062
 42
-0.000757
  0
VERTEX
  8
0
 10
128.165141
 20
620.690323
 42
-0.001166
  0
VERTEX
  8
0
 10
114.680265
 20
620.671458
 42
-0.000365
  0
VERTEX
  8
0
 10
102.987019
 20
620.690900
 42
-0.034760
  0
VERTEX
  8
0
 10
101.310476
 20
620.811626
 42
-0.076088
  0
VERTEX
  8
0
 10
100.303267
 20
621.115770
 42
-0.108147
  0
VERTEX
  8
0
 10
99.567223
 20
621.687726
 42
-0.095791
  0
VERTEX
  8
0
 10
99.079606
 20
622.572424
 42
-0.049481
  0
VERTEX
  8
0
 10
98.810476
 20
623.811626
 42
0.095722
  0
VERTEX
  8
0
 10
98.184785
 20
625.793244
 42
0.279744
  0
VERTEX
  8
0
 10
96.997062
 20
626.486844
 42
0.272966
  0
VERTEX
  8
0
 10
95.807281
 20
625.757484
 42
0.093610
  0
VERTEX
  8
0
 10
95.183578
 20
623.750000
 42
0.000000
  0
VERTEX
  8
0
 10
94.867155
 20
621.000000
 42
0.000000
  0
VERTEX
  8
0
 10
58.683578
 20
620.926573
 42
0.000838
  0
VERTEX
  8
0
 10
44.537687
 20
620.874172
 42
0.001196
  0
VERTEX
  8
0
 10
31.984633
 20
620.776604
 42
0.000648
  0
VERTEX
  8
0
 10
21.364030
 20
620.654873
 42
0.018195
  0
VERTEX
  8
0
 10
18.604534
 20
620.519152
 42
0.000000
  0
VERTEX
  8
0
 10
14.709068
 20
620.185157
 42
0.000000
  0
VERTEX
  8
0
 10
30.092434
 20
635.592579
 42
0.000000
  0
VERTEX
  8
0
 10
45.475800
 20
651.000000
 42
0.000000
  0
VERTEX
  8
0
 10
70.198967
 20
651.000000
 42
0.000000
  0
VERTEX
  8
0
 10
94.922134
 20
651.000000
 42
0.000000
  0
SEQEND
  0
POLYLINE
  8
0
 66
1
 70
1
  0
VERTEX
  8
0
 10
272.000000
 20
642.000000
 42
0.005946
  0
VERTEX
  8
0
 10
272.056738
 20
637.229484
 42
0.035355
  0
VERTEX
  8
0
 10
272.291667
 20
634.750000
 42
0.084509
  0
VERTEX
  8
0
 10
272.743224
 20
633.447695
 42
0.273642
  0
VERTEX
  8
0
 10
273.500000
 20
633.000000
 42
0.273642
  0
VERTEX
  8
0
 10
274.256776
 20
633.447695
 42
0.084509
  0
VERTEX
  8
0
 10
274.708333
 20
634.750000
 42
0.035355
  0
VERTEX
  8
0
 10
274.943262
 20
637.229484
 42
0.005946
  0
VERTEX
  8
0
 10
275.000000
 20
642.000000
 42
0.000000
  0
VERTEX
  8
0
 10
275.000000
 20
651.000000
 42
0.000000
  0
VERTEX
  8
0
 10
300.262503
 20
651.000000
 42
0.000000
  0
VERTEX
  8
0
 10
325.525007
 20
651.000000
 42
0.000000
  0
VERTEX
  8
0
 10
340.500000
 20
636.000000
 42
-0.003219
  0
VERTEX
  8
0
 10
346.173320
 20
630.243552
 42
-0.005634
  0
VERTEX
  8
0
 10
350.786012
 20
625.394463
 42
-0.001733
  0
VERTEX
  8
0
 10
354.609846
 20
621.254182
 42
-0.638293
  0
VERTEX
  8
0
 10
354.487497
 20
620.959875
 42
-0.010240
  0
VERTEX
  8
0
 10
353.273208
 20
620.935425
 42
-0.000006
  0
VERTEX
  8
0
 10
316.464307
 20
620.948559
 42
-0.000024
  0
VERTEX
  8
0
 10
281.380099
 20
620.963164
 42
-0.002283
  0
VERTEX
  8
0
 10
276.316422
 20
620.988640
 42
-0.199292
  0
VERTEX
  8
0
 10
275.839912
 20
621.191808
 42
-0.069292
  0
VERTEX
  8
0
 10
275.387572
 20
621.804476
 42
-0.055596
  0
VERTEX
  8
0
 10
275.024515
 20
622.696476
 42
-0.040247
  0
VERTEX
  8
0
 10
274.816422
 20
623.750000
 42
0.060416
  0
VERTEX
  8
0
 10
274.355677
 20
625.672319
 42
0.336342
  0
VERTEX
  8
0
 10
273.515839
 20
626.205850
 42
0.294454
  0
VERTEX
  8
0
 10
272.663567
 20
625.550280
 42
0.054561
  0
VERTEX
  8
0
 10
272.183578
 20
623.531089
 42
-0.050984
  0
VERTEX
  8
0
 10
271.885675
 20
622.236928
 42
-0.145689
  0
VERTEX
  8
0
 10
271.356414
 20
621.491595
 42
-0.129239
  0
VERTEX
  8
0
 10
270.461278
 20
621.105805
 42
-0.036458
  0
VERTEX
  8
0
 10
268.933578
 20
620.987952
 42
-0.000937
  0
VERTEX
  8
0
 10
266.762712
 20
620.983106
 42
-0.000018
  0
VERTEX
  8
0
 10
255.405488
 20
620.979443
 42
-0.000043
  0
VERTEX
  8
0
 10
242.157679
 20
620.976777
 42
-0.000029
  0
VERTEX
  8
0
 10
227.000000
 20
620.975904
 42
-0.000029
  0
VERTEX
  8
0
 10
211.976890
 20
620.976772
 42
-0.000046
  0
VERTEX
  8
0
 10
199.162500
 20
620.979443
 42
-0.000007
  0
VERTEX
  8
0
 10
187.795230
 20
620.983030
 42
-0.002929
  0
VERTEX
  8
0
 10
187.000000
 20
620.987952
 42
-0.383876
  0
VERTEX
  8
0
 10
186.553963
 20
621.399420
 42
-0.006529
  0
VERTEX
  8
0
 10
186.266867
 20
624.999797
 42
-0.011626
  0
VERTEX
  8
0
 10
186.062934
 20
629.710610
 42
-0.005003
  0
VERTEX
  8
0
 10
186.000000
 20
636.000000
 42
0.000000
  0
VERTEX
  8
0
 10
186.000000
 20
651.000000
 42
0.000000
  0
VERTEX
  8
0
 10
229.000000
 20
651.000000
 42
0.000000
  0
VERTEX
  8
0
 10
272.000000
 20
651.000000
 42
0.000000
  0
SEQEND
  0
POLYLINE
  8
0
 66
1
 70
1
  0
VERTEX
  8
0
 10
556.649382
 20
615.683952
 42
-0.240137
  0
VERTEX
  8
0
 10
556.755073
 20
615.358543
 42
-0.002032
  0
VERTEX
  8
0
 10
556.316989
 20
612.667301
 42
-0.006544
  0
VERTEX
  8
0
 10
555.754252
 20
609.548583
 42
-0.004100
  0
VERTEX
  8
0
 10
555.018243
 20
605.914092
 42
0.001542
  0
VERTEX
  8
0
 10
553.386150
 20
598.061334
 42
0.050083
  0
VERTEX
  8
0
 10
553.188661
 20
596.127173
 42
0.283491
  0
VERTEX
  8
0
 10
553.689316
 20
595.312074
 42
0.117409
  0
VERTEX
  8
0
 10
555.000000
 20
595.000000
 42
-0.410850
  0
VERTEX
  8
0
 10
556.443227
 20
593.573270
 42
-0.000994
  0
VERTEX
  8
0
 10
556.748120
 20
561.510223
 42
-0.001786
  0
VERTEX
  8
0
 10
556.966706
 20
506.151272
 42
-0.000094
  0
VERTEX
  8
0
 10
557.000000
 20
329.081787
 42
0.000214
  0
VERTEX
  8
0
 10
557.043650
 20
227.007310
 42
0.000353
  0
VERTEX
  8
0
 10
557.178303
 20
140.812400
 42
0.000014
  0
VERTEX
  8
0
 10
557.357241
 20
62.921030
 42
0.091273
  0
VERTEX
  8
0
 10
557.606989
 20
61.581787
 42
-0.075625
  0
VERTEX
  8
0
 10
557.765646
 20
60.856801
 42
-0.203577
  0
VERTEX
  8
0
 10
557.594635
 20
60.368996
 42
-0.163335
  0
VERTEX
  8
0
 10
557.084488
 20
60.084889
 42
-0.046113
  0
VERTEX
  8
0
 10
556.166006
 20
60.000000
 42
0.040307
  0
VERTEX
  8
0
 10
555.341261
 20
59.933405
 42
0.042985
  0
VERTEX
  8
0
 10
554.556076
 20
59.735371
 42
0.047135
  0
VERTEX
  8
0
 10
553.918680
 20
59.445221
 42
0.124599
  0
VERTEX
  8
0
 10
553.561269
 20
59.099135
 42
0.168022
  0
VERTEX
  8
0
 10
553.406910
 20
58.410929
 42
0.005673
  0
VERTEX
  8
0
 10
553.754892
 20
55.610817
 42
0.010148
  0
VERTEX
  8
0
 10
554.277115
 20
52.274818
 42
0.006838
  0
VERTEX
  8
0
 10
555.002252
 20
48.489056
 42
-0.001685
  0
VERTEX
  8
0
 10
555.767735
 20
44.704186
 42
-0.002473
  0
VERTEX
  8
0
 10
556.413161
 20
41.370509
 42
-0.001168
  0
VERTEX
  8
0
 10
556.941744
 20
38.529649
 42
-0.045437
  0
VERTEX
  8
0
 10
557.000000
 20
37.889921
 42
-0.411399
  0
VERTEX
  8
0
 10
556.620207
 20
37.506457
 42
-0.000099
  0
VERTEX
  8
0
 10
529.640853
 20
37.252305
 42
-0.001509
  0
VERTEX
  8
0
 10
498.796266
 20
37.060974
 42
-0.000796
  0
VERTEX
  8
0
 10
460.500000
 20
37.000000
 42
0.000000
  0
VERTEX
  8
0
 10
364.000000
 20
37.000000
 42
0.000000
  0
VERTEX
  8
0
 10
364.000000
 20
326.333333
 42
-0.000135
  0
VERTEX
  8
0
 10
364.029952
 20
437.306854
 42
-0.000225
  0
VERTEX
  8
0
 10
364.122417
 20
530.797396
 42
-0.000003
  0
VERTEX
  8
0
 10
364.244975
 20
615.669558
 42
-0.198558
  0
VERTEX
  8
0
 10
364.416739
 20
616.083333
 42
-0.199418
  0
VERTEX
  8
0
 10
365.324347
 20
616.458150
 42
-0.000011
  0
VERTEX
  8
0
 10
460.532306
 20
616.262450
 42
-0.000011
  0
VERTEX
  8
0
 10
555.738127
 20
616.062539
 42
-0.198361
  0
SEQEND
  0
POLYLINE
  8
0
 66
1
 70
1
  0
VERTEX
  8
0
 10
95.000000
 20
600.406553
 42
0.003339
  0
VERTEX
  8
0
 10
95.323702
 20
592.360137
 42
0.021625
  0
VERTEX
  8
0
 10
95.689028
 20
588.317759
 42
0.043169
  0
VERTEX
  8
0
 10
96.184733
 20
586.097458
 42
0.327192
  0
VERTEX
  8
0
 10
97.000000
 20
585.500000
 42
0.328142
  0
VERTEX
  8
0
 10
97.808518
 20
586.094647
 42
0.045690
  0
VERTEX
  8
0
 10
98.271564
 20
588.254456
 42
0.022005
  0
VERTEX
  8
0
 10
98.573597
 20
592.227469
 42
0.003278
  0
VERTEX
  8
0
 10
98.776733
 20
600.250000
 42
-0.005591
  0
VERTEX
  8
0
 10
98.953448
 20
606.150430
 42
-0.010679
  0
VERTEX
  8
0
 10
99.249534
 20
610.883204
 42
-0.004957
  0
VERTEX
  8
0
 10
99.608051
 20
614.696117
 42
-0.347952
  0
VERTEX
  8
0
 10
100.026733
 20
615.125000
 42
-0.013697
  0
VERTEX
  8
0
 10
100.504341
 20
615.173086
 42
-0.005613
  0
VERTEX
  8
0
 10
101.154728
 20
615.213281
 42
-0.005549
  0
VERTEX
  8
0
 10
101.854435
 20
615.240864
 42
-0.007076
  0
VERTEX
  8
0
 10
102.500000
 20
615.250000
 42
-0.000365
  0
VERTEX
  8
0
 10
103.706346
 20
615.249119
 42
-0.000000
  0
VERTEX
  8
0
 10
128.226522
 20
615.213281
 42
-0.000004
  0
VERTEX
  8
0
 10
155.671035
 20
615.172923
 42
-0.000002
  0
VERTEX
  8
0
 10
187.973267
 20
615.125000
 42
0.000000
  0
VERTEX
  8
0
 10
271.946534
 20
615.000000
 42
0.000000
  0
VERTEX
  8
0
 10
272.223267
 20
600.332107
 42
0.004420
  0
VERTEX
  8
0
 10
272.416957
 20
593.342465
 42
0.016085
  0
VERTEX
  8
0
 10
272.721818
 20
588.912505
 42
0.017355
  0
VERTEX
  8
0
 10
273.121966
 20
585.979286
 42
0.276661
  0
VERTEX
  8
0
 10
273.750000
 20
585.248774
 42
0.452048
  0
VERTEX
  8
0
 10
274.388155
 20
585.621176
 42
0.027113
  0
VERTEX
  8
0
 10
274.736168
 20
588.104597
 42
0.017719
  0
VERTEX
  8
0
 10
274.946423
 20
592.341820
 42
0.003536
  0
VERTEX
  8
0
 10
275.000000
 20
599.916667
 42
0.000000
  0
VERTEX
  8
0
 10
275.000000
 20
615.000000
 42
0.000000
  0
VERTEX
  8
0
 10
317.000000
 20
615.000000
 42
0.000000
  0
VERTEX
  8
0
 10
359.000000
 20
615.000000
 42
0.000000
  0
VERTEX
  8
0
 10
359.000000
 20
327.022307
 42
0.000000
  0
VERTEX
  8
0
 10
359.000000
 20
39.044614
 42
0.000000
  0
VERTEX
  8
0
 10
319.250000
 20
38.772307
 42
-0.000774
  0
VERTEX
  8
0
 10
303.855278
 20
38.690692
 42
-0.001190
  0
VERTEX
  8
0
 10
290.526785
 20
38.672396
 42
-0.000380
  0
VERTEX
  8
0
 10
278.978632
 20
38.692812
 42
-0.034698
  0
VERTEX
  8
0
 10
277.287991
 20
38.814572
 42
-0.132937
  0
VERTEX
  8
0
 10
276.059102
 20
39.342252
 42
-0.158799
  0
VERTEX
  8
0
 10
275.365264
 20
40.387729
 42
-0.054422
  0
VERTEX
  8
0
 10
275.017838
 20
42.510745
 42
-0.005082
  0
VERTEX
  8
0
 10
274.787991
 20
47.814572
 42
0.006750
  0
VERTEX
  8
0
 10
274.430765
 20
55.467212
 42
0.401546
  0
VERTEX
  8
0
 10
273.499451
 20
56.329568
 42
0.391941
  0
VERTEX
  8
0
 10
272.568059
 20
55.437591
 42
0.006720
  0
VERTEX
  8
0
 10
272.211381
 20
47.771525
 42
0.000000
  0
VERTEX
  8
0
 10
271.922762
 20
39.043050
 42
0.000000
  0
VERTEX
  8
0
 10
230.631119
 20
38.771525
 42
-0.000757
  0
VERTEX
  8
0
 10
214.683013
 20
38.690792
 42
-0.001189
  0
VERTEX
  8
0
 10
200.978411
 20
38.674737
 42
-0.000288
  0
VERTEX
  8
0
 10
188.979701
 20
38.696105
 42
-0.047264
  0
VERTEX
  8
0
 10
187.669738
 20
38.823324
 42
-0.265723
  0
VERTEX
  8
0
 10
186.756755
 20
39.609191
 42
-0.058823
  0
VERTEX
  8
0
 10
186.282299
 20
41.700139
 42
-0.023628
  0
VERTEX
  8
0
 10
186.049440
 20
45.684793
 42
-0.002781
  0
VERTEX
  8
0
 10
186.000000
 20
54.573324
 42
0.004836
  0
VERTEX
  8
0
 10
185.937307
 20
61.055026
 42
0.011348
  0
VERTEX
  8
0
 10
185.733794
 20
65.893331
 42
0.006266
  0
VERTEX
  8
0
 10
185.447530
 20
69.590955
 42
0.388151
  0
VERTEX
  8
0
 10
185.000000
 20
70.000000
 42
0.388252
  0
VERTEX
  8
0
 10
184.552330
 20
69.590681
 42
0.006231
  0
VERTEX
  8
0
 10
184.266152
 20
65.880515
 42
0.011312
  0
VERTEX
  8
0
 10
184.062674
 20
61.026449
 42
0.004818
  0
VERTEX
  8
0
 10
184.000000
 20
54.522062
 42
0.000000
  0
VERTEX
  8
0
 10
184.000000
 20
39.044123
 42
0.000000
  0
VERTEX
  8
0
 10
143.750000
 20
38.772062
 42
-0.000764
  0
VERTEX
  8
0
 10
128.163574
 20
38.690538
 42
-0.001176
  0
VERTEX
  8
0
 10
114.673660
 20
38.672324
 42
-0.000372
  0
VERTEX
  8
0
 10
102.980349
 20
38.692723
 42
-0.034708
  0
VERTEX
  8
0
 10
101.287991
 20
38.814572
 42
-0.132937
  0
VERTEX
  8
0
 10
100.059102
 20
39.342252
 42
-0.158799
  0
VERTEX
  8
0
 10
99.365264
 20
40.387729
 42
-0.054422
  0
VERTEX
  8
0
 10
99.017838
 20
42.510745
 42
-0.005082
  0
VERTEX
  8
0
 10
98.787991
 20
47.814572
 42
0.006679
  0
VERTEX
  8
0
 10
98.578349
 20
52.319338
 42
0.035806
  0
VERTEX
  8
0
 10
98.256414
 20
54.754430
 42
0.079913
  0
VERTEX
  8
0
 10
97.761401
 20
56.059592
 42
0.268378
  0
VERTEX
  8
0
 10
97.000000
 20
56.500000
 42
0.269279
  0
VERTEX
  8
0
 10
96.237928
 20
56.057493
 42
0.079408
  0
VERTEX
  8
0
 10
95.743112
 20
54.743511
 42
0.035570
  0
VERTEX
  8
0
 10
95.421186
 20
52.291825
 42
0.006611
  0
VERTEX
  8
0
 10
95.211067
 20
47.750000
 42
0.000000
  0
VERTEX
  8
0
 10
94.922134
 20
39.000000
 42
0.000000
  0
VERTEX
  8
0
 10
52.961067
 20
39.000000
 42
0.000000
  0
VERTEX
  8
0
 10
11.000000
 20
39.000000
 42
0.000000
  0
VERTEX
  8
0
 10
11.000000
 20
326.988656
 42
0.000000
  0
VERTEX
  8
0
 10
11.000000
 20
614.977311
 42
0.000000
  0
VERTEX
  8
0
 10
51.250000
 20
615.238656
 42
-0.000240
  0
VERTEX
  8
0
 10
66.786950
 20
615.332090
 42
-0.000378
  0
VERTEX
  8
0
 10
80.117188
 20
615.395780
 42
-0.000084
  0
VERTEX
  8
0
 10
91.826261
 20
615.440912
 42
-0.016478
  0
VERTEX
  8
0
 10
93.000000
 20
615.406553
 42
-0.312590
  0
VERTEX
  8
0
 10
93.814186
 20
614.763958
 42
-0.041063
  0
VERTEX
  8
0
 10
94.309529
 20
612.491639
 42
-0.021356
  0
VERTEX
  8
0
 10
94.676800
 20
608.414907
 42
-0.003403
  0
SEQEND
  0
POLYLINE
  8
0
 66
1
 70
1
  0
VERTEX
  8
0
 10
186.831353
 20
4.250012
 42
0.000214
  0
VERTEX
  8
0
 10
272.064501
 20
4.170436
 42
0.000126
  0
VERTEX
  8
0
 10
373.968037
 20
4.144722
 42
0.000126
  0
VERTEX
  8
0
 10
475.808627
 20
4.170427
 42
0.000216
  0
VERTEX
  8
0
 10
560.831353
 20
4.250019
 42
0.001425
  0
VERTEX
  8
0
 10
582.803835
 20
4.342680
 42
0.995794
  0
VERTEX
  8
0
 10
582.803585
 20
4.430296
 42
0.000284
  0
VERTEX
  8
0
 10
507.621947
 20
4.490050
 42
0.000057
  0
VERTEX
  8
0
 10
373.500000
 20
4.505274
 42
0.000057
  0
VERTEX
  8
0
 10
239.387791
 20
4.490068
 42
0.000285
  0
VERTEX
  8
0
 10
164.391085
 20
4.430288
 42
0.995875
  0
VERTEX
  8
0
 10
164.390843
 20
4.342724
 42
0.001384
  0
SEQEND
  0
POLYLINE
  8
0
 66
1
 70
1
  0
VERTEX
  8
0
 10
170.326623
 20
832.558747
 42
-0.032526
  0
VERTEX
  8
0
 10
169.165420
 20
830.482793
 42
-0.145400
  0
VERTEX
  8
0
 10
168.116722
 20
829.586880
 42
-0.097810
  0
VERTEX
  8
0
 10
166.534641
 20
829.227749
 42
-0.010599
  0
VERTEX
  8
0
 10
162.772271
 20
829.201338
 42
0.042474
  0
VERTEX
  8
0
 10
158.326486
 20
828.886408
 42
0.083480
  0
VERTEX
  8
0
 10
154.973480
 20
827.767097
 42
0.081825
  0
VERTEX
  8
0
 10
152.128348
 20
825.594999
 42
0.039490
  0
VERTEX
  8
0
 10
149.250000
 20
822.010169
 42
0.101931
  0
VERTEX
  8
0
 10
147.348857
 20
817.442674
 42
0.076407
  0
VERTEX
  8
0
 10
147.137304
 20
811.984850
 42
0.077782
  0
VERTEX
  8
0
 10
148.563538
 20
806.811915
 42
0.113938
  0
VERTEX
  8
0
 10
151.414147
 20
803.071252
 42
-0.094084
  0
VERTEX
  8
0
 10
152.136438
 20
802.196918
 42
-0.170086
  0
VERTEX
  8
0
 10
152.288018
 20
801.291601
 42
-0.079435
  0
VERTEX
  8
0
 10
151.851400
 20
800.015194
 42
-0.010491
  0
VERTEX
  8
0
 10
150.453695
 20
797.511199
 42
0.009024
  0
VERTEX
  8
0
 10
149.065957
 20
795.042110
 42
0.078726
  0
VERTEX
  8
0
 10
148.651574
 20
793.858889
 42
0.219210
  0
VERTEX
  8
0
 10
148.836340
 20
793.140842
 42
0.130977
  0
VERTEX
  8
0
 10
149.563854
 20
792.613870
 42
0.080455
  0
VERTEX
  8
0
 10
150.988369
 20
792.316431
 42
0.177380
  0
VERTEX
  8
0
 10
152.033339
 20
792.646365
 42
0.109198
  0
VERTEX
  8
0
 10
152.941935
 20
793.733172
 42
0.021526
  0
VERTEX
  8
0
 10
154.021348
 20
796.051538
 42
-0.032251
  0
VERTEX
  8
0
 10
154.923818
 20
797.886054
 42
-0.163939
  0
VERTEX
  8
0
 10
155.764747
 20
798.629805
 42
-0.119685
  0
VERTEX
  8
0
 10
157.027751
 20
798.834831
 42
-0.013865
  0
VERTEX
  8
0
 10
159.901555
 20
798.531862
 42
0.077505
  0
VERTEX
  8
0
 10
164.384342
 20
798.630210
 42
0.069434
  0
VERTEX
  8
0
 10
168.809371
 20
800.073483
 42
0.070928
  0
VERTEX
  8
0
 10
172.585362
 20
802.632162
 42
0.088072
  0
VERTEX
  8
0
 10
175.176008
 20
805.984398
 42
0.084814
  0
VERTEX
  8
0
 10
176.757340
 20
810.870060
 42
0.070445
  0
VERTEX
  8
0
 10
176.774545
 20
816.340329
 42
0.073508
  0
VERTEX
  8
0
 10
175.305641
 20
821.367760
 42
0.112231
  0
VERTEX
  8
0
 10
172.550285
 20
824.958267
 42
-0.087096
  0
VERTEX
  8
0
 10
171.793872
 20
825.848480
 42
-0.174564
  0
VERTEX
  8
0
 10
171.626415
 20
826.743697
 42
-0.082231
  0
VERTEX
  8
0
 10
172.047934
 20
827.995444
 42
-0.010296
  0
VERTEX
  8
0
 10
173.449343
 20
830.503773
 42
0.016513
  0
VERTEX
  8
0
 10
174.354143
 20
832.171602
 42
0.025210
  0
VERTEX
  8
0
 10
175.015749
 20
833.678812
 42
0.022565
  0
VERTEX
  8
0
 10
175.419623
 20
834.905316
 42
0.270948
  0
VERTEX
  8
0
 10
175.298328
 20
835.368338
 42
0.161093
  0
VERTEX
  8
0
 10
174.112851
 20
835.964502
 42
0.166742
  0
VERTEX
  8
0
 10
172.824627
 20
835.724849
 42
0.107038
  0
VERTEX
  8
0
 10
171.522038
 20
834.564666
 42
0.046264
  0
SEQEND
  0
POLYLINE
  8
0
 66
1
 70
1
  0
VERTEX
  8
0
 10
166.000000
 20
825.534393
 42
-0.122972
  0
VERTEX
  8
0
 10
165.914801
 20
825.193216
 42
-0.000686
  0
VERTEX
  8
0
 10
164.327376
 20
822.222857
 42
-0.002896
  0
VERTEX
  8
0
 10
162.488644
 20
818.840772
 42
-0.001829
  0
VERTEX
  8
0
 10
160.305961
 20
814.914910
 42
0.000000
  0
VERTEX
  8
0
 10
154.611922
 20
804.761033
 42
0.000000
  0
VERTEX
  8
0
 10
152.805961
 20
806.991301
 42
-0.065295
  0
VERTEX
  8
0
 10
152.016642
 20
808.277978
 42
-0.043710
  0
VERTEX
  8
0
 10
151.452248
 20
809.912462
 42
-0.037263
  0
VERTEX
  8
0
 10
151.111694
 20
811.888928
 42
-0.024039
  0
VERTEX
  8
0
 10
151.000000
 20
814.210784
 42
-0.023604
  0
VERTEX
  8
0
 10
151.134446
 20
817.057102
 42
-0.072791
  0
VERTEX
  8
0
 10
151.590735
 20
818.923881
 42
-0.074590
  0
VERTEX
  8
0
 10
152.556054
 20
820.556576
 42
-0.025640
  0
VERTEX
  8
0
 10
154.400000
 20
822.600000
 42
-0.025673
  0
VERTEX
  8
0
 10
156.328535
 20
824.340044
 42
-0.064365
  0
VERTEX
  8
0
 10
157.936836
 20
825.335366
 42
-0.070536
  0
VERTEX
  8
0
 10
159.654106
 20
825.838079
 42
-0.036001
  0
VERTEX
  8
0
 10
161.900000
 20
826.000000
 42
-0.010658
  0
VERTEX
  8
0
 10
163.471959
 20
825.966489
 42
-0.017614
  0
VERTEX
  8
0
 10
164.795625
 20
825.863228
 42
-0.011798
  0
VERTEX
  8
0
 10
165.842642
 20
825.719232
 42
-0.368015
  0
SEQEND
  0
POLYLINE
  8
0
 66
1
 70
1
  0
VERTEX
  8
0
 10
173.000000
 20
813.466139
 42
-0.020007
  0
VERTEX
  8
0
 10
172.879601
 20
810.458393
 42
-0.067985
  0
VERTEX
  8
0
 10
172.460396
 20
808.545866
 42
-0.077424
  0
VERTEX
  8
0
 10
171.576018
 20
806.950149
 42
-0.031205
  0
VERTEX
  8
0
 10
169.923077
 20
805.076923
 42
-0.030700
  0
VERTEX
  8
0
 10
168.219640
 20
803.570744
 42
-0.061419
  0
VERTEX
  8
0
 10
166.680345
 20
802.648146
 42
-0.065286
  0
VERTEX
  8
0
 10
165.026786
 20
802.160317
 42
-0.039143
  0
VERTEX
  8
0
 10
162.982094
 20
802.000000
 42
-0.018429
  0
VERTEX
  8
0
 10
161.467653
 20
802.055837
 42
-0.025236
  0
VERTEX
  8
0
 10
160.114192
 20
802.224761
 42
-0.023747
  0
VERTEX
  8
0
 10
159.043254
 20
802.466621
 42
-0.189113
  0
VERTEX
  8
0
 10
158.645149
 20
802.765144
 42
-0.251139
  0
VERTEX
  8
0
 10
158.609521
 20
803.343985
 42
-0.004639
  0
VERTEX
  8
0
 10
159.955562
 20
806.203863
 42
-0.010218
  0
VERTEX
  8
0
 10
161.658635
 20
809.559774
 42
-0.006505
  0
VERTEX
  8
0
 10
163.770181
 20
813.396964
 42
0.000000
  0
VERTEX
  8
0
 10
169.368099
 20
823.263641
 42
0.000000
  0
VERTEX
  8
0
 10
171.184049
 20
821.021036
 42
-0.065742
  0
VERTEX
  8
0
 10
171.994602
 20
819.697102
 42
-0.045576
  0
VERTEX
  8
0
 10
172.559002
 20
818.032967
 42
-0.037555
  0
VERTEX
  8
0
 10
172.892207
 20
815.978917
 42
-0.021439
  0
SEQEND
  0
POLYLINE
  8
0
 66
1
 70
1
  0
VERTEX
  8
0
 10
188.500000
 20
831.508243
 42
-0.015393
  0
VERTEX
  8
0
 10
187.949164
 20
831.343304
 42
-0.003651
  0
VERTEX
  8
0
 10
187.021038
 20
831.103493
 42
-0.003753
  0
VERTEX
  8
0
 10
185.949921
 20
830.843590
 42
-0.003695
  0
VERTEX
  8
0
 10
184.869492
 20
830.598410
 42
0.059898
  0
VERTEX
  8
0
 10
183.826021
 20
830.234671
 42
0.054756
  0
VERTEX
  8
0
 10
182.863712
 20
829.625343
 42
0.058393
  0
VERTEX
  8
0
 10
182.121266
 20
828.875242
 42
0.102314
  0
VERTEX
  8
0
 10
181.735209
 20
828.095441
 42
0.128344
  0
VERTEX
  8
0
 10
181.734711
 20
827.067369
 42
0.258774
  0
VERTEX
  8
0
 10
182.276798
 20
826.498444
 42
0.076158
  0
VERTEX
  8
0
 10
183.690413
 20
826.283220
 42
0.006510
  0
VERTEX
  8
0
 10
187.365718
 20
826.334503
 42
-0.006973
  0
VERTEX
  8
0
 10
191.362537
 20
826.386568
 42
-0.099867
  0
VERTEX
  8
0
 10
192.750462
 20
826.105229
 42
-0.217116
  0
VERTEX
  8
0
 10
193.450777
 20
825.344591
 42
-0.050762
  0
VERTEX
  8
0
 10
193.830076
 20
823.608507
 42
-0.075767
  0
VERTEX
  8
0
 10
193.753079
 20
821.560769
 42
-0.149893
  0
VERTEX
  8
0
 10
193.000125
 20
820.136796
 42
-0.136942
  0
VERTEX
  8
0
 10
191.519659
 20
819.299647
 42
-0.058979
  0
VERTEX
  8
0
 10
189.250000
 20
819.015313
 42
0.058327
  0
VERTEX
  8
0
 10
188.152315
 20
818.879247
 42
0.151434
  0
VERTEX
  8
0
 10
187.476531
 20
818.473764
 42
0.138047
  0
VERTEX
  8
0
 10
187.111519
 20
817.728474
 42
0.045296
  0
VERTEX
  8
0
 10
187.000000
 20
816.500000
 42
0.046678
  0
VERTEX
  8
0
 10
187.122071
 20
815.195259
 42
0.165323
  0
VERTEX
  8
0
 10
187.530000
 20
814.473214
 42
0.148134
  0
VERTEX
  8
0
 10
188.325485
 20
814.103828
 42
0.035164
  0
VERTEX
  8
0
 10
189.800000
 20
814.000000
 42
-0.068405
  0
VERTEX
  8
0
 10
192.103720
 20
813.683348
 42
-0.126999
  0
VERTEX
  8
0
 10
193.724963
 20
812.742477
 42
-0.128310
  0
VERTEX
  8
0
 10
194.677823
 20
811.142319
 42
-0.070583
  0
VERTEX
  8
0
 10
195.000000
 20
808.871429
 42
-0.092027
  0
VERTEX
  8
0
 10
194.466074
 20
805.995086
 42
-0.160863
  0
VERTEX
  8
0
 10
192.946130
 20
804.138663
 42
-0.123561
  0
VERTEX
  8
0
 10
190.280434
 20
803.255698
 42
-0.044236
  0
VERTEX
  8
0
 10
186.247533
 20
803.313901
 42
0.006880
  0
VERTEX
  8
0
 10
182.893386
 20
803.613501
 42
0.097061
  0
VERTEX
  8
0
 10
181.700186
 20
803.471817
 42
0.278702
  0
VERTEX
  8
0
 10
181.207698
 20
802.905156
 42
0.078480
  0
VERTEX
  8
0
 10
181.189094
 20
801.684033
 42
0.099298
  0
VERTEX
  8
0
 10
181.582414
 20
800.569836
 42
0.118375
  0
VERTEX
  8
0
 10
182.358614
 20
799.774071
 42
0.074160
  0
VERTEX
  8
0
 10
183.711193
 20
799.179524
 42
0.020022
  0
VERTEX
  8
0
 10
186.000000
 20
798.653130
 42
0.024184
  0
VERTEX
  8
0
 10
188.069778
 20
798.366395
 42
0.029464
  0
VERTEX
  8
0
 10
190.024815
 20
798.306969
 42
0.032490
  0
VERTEX
  8
0
 10
191.768909
 20
798.470487
 42
0.053415
  0
VERTEX
  8
0
 10
193.197701
 20
798.858496
 42
0.131885
  0
VERTEX
  8
0
 10
196.945486
 20
801.614978
 42
0.111626
  0
VERTEX
  8
0
 10
199.100131
 20
806.052120
 42
0.117401
  0
VERTEX
  8
0
 10
199.081094
 20
810.802523
 42
0.156943
  0
VERTEX
  8
0
 10
196.845361
 20
814.456591
 42
0.000000
  0
VERTEX
  8
0
 10
194.290722
 20
816.653999
 42
0.000000
  0
VERTEX
  8
0
 10
196.645361
 20
818.751332
 42
0.051052
  0
VERTEX
  8
0
 10
197.645105
 20
819.843788
 42
0.053036
  0
VERTEX
  8
0
 10
198.388130
 20
821.102892
 42
0.053452
  0
VERTEX
  8
0
 10
198.845275
 20
822.480755
 42
0.053438
  0
VERTEX
  8
0
 10
199.000000
 20
823.924332
 42
0.094175
  0
VERTEX
  8
0
 10
198.545171
 20
826.317721
 42
0.069591
  0
VERTEX
  8
0
 10
197.215521
 20
828.669640
 42
0.074299
  0
VERTEX
  8
0
 10
195.414703
 20
830.412221
 42
0.156417
  0
VERTEX
  8
0
 10
193.581787
 20
831.000000
 42
-0.023671
  0
VERTEX
  8
0
 10
192.942160
 20
831.030298
 42
-0.014292
  0
VERTEX
  8
0
 10
192.188962
 20
831.123602
 42
-0.014303
  0
VERTEX
  8
0
 10
191.444380
 20
831.259428
 42
-0.024250
  0
VERTEX
  8
0
 10
190.831787
 20
831.420772
 42
0.037958
  0
VERTEX
  8
0
 10
190.248566
 20
831.557416
 42
0.029200
  0
VERTEX
  8
0
 10
189.597463
 20
831.620035
 42
0.029925
  0
VERTEX
  8
0
 10
188.978491
 20
831.606207
 42
0.059960
  0
SEQEND
  0
POLYLINE
  8
0
 66
1
 70
1
  0
VERTEX
  8
0
 10
211.500000
 20
831.498521
 42
-0.014262
  0
VERTEX
  8
0
 10
210.943646
 20
831.335871
 42
-0.003195
  0
VERTEX
  8
0
 10
209.985937
 20
831.091827
 42
-0.003312
  0
VERTEX
  8
0
 10
208.876172
 20
830.824366
 42
-0.003199
  0
VERTEX
  8
0
 10
207.750000
 20
830.568419
 42
0.045270
  0
VERTEX
  8
0
 10
206.523496
 20
830.178838
 42
0.089892
  0
VERTEX
  8
0
 10
205.671741
 20
829.624032
 42
0.109907
  0
VERTEX
  8
0
 10
205.174760
 20
828.890095
 42
0.094350
  0
VERTEX
  8
0
 10
205.000000
 20
827.972212
 42
0.106071
  0
VERTEX
  8
0
 10
205.226698
 20
826.915623
 42
0.229423
  0
VERTEX
  8
0
 10
205.848487
 20
826.395026
 42
0.083048
  0
VERTEX
  8
0
 10
207.167540
 20
826.288885
 42
0.007893
  0
VERTEX
  8
0
 10
210.397574
 20
826.616908
 42
-0.011028
  0
VERTEX
  8
0
 10
213.561617
 20
826.918201
 42
-0.076315
  0
VERTEX
  8
0
 10
215.110449
 20
826.794881
 42
-0.141419
  0
VERTEX
  8
0
 10
216.104965
 20
826.234977
 42
-0.071537
  0
VERTEX
  8
0
 10
216.964147
 20
825.066992
 42
-0.127951
  0
VERTEX
  8
0
 10
217.657328
 20
822.195606
 42
-0.098918
  0
VERTEX
  8
0
 10
216.968445
 20
819.038550
 42
-0.061178
  0
VERTEX
  8
0
 10
214.690454
 20
815.188127
 42
-0.019187
  0
VERTEX
  8
0
 10
210.393169
 20
810.032122
 42
0.012609
  0
VERTEX
  8
0
 10
204.839321
 20
803.543896
 42
0.263938
  0
VERTEX
  8
0
 10
204.431389
 20
801.118569
 42
0.291188
  0
VERTEX
  8
0
 10
206.300252
 20
799.684179
 42
0.014667
  0
VERTEX
  8
0
 10
214.335998
 20
799.212890
 42
0.003018
  0
VERTEX
  8
0
 10
220.814956
 20
799.062462
 42
0.056289
  0
VERTEX
  8
0
 10
222.846126
 20
799.256585
 42
0.244673
  0
VERTEX
  8
0
 10
223.653874
 20
799.920078
 42
0.136876
  0
VERTEX
  8
0
 10
223.824414
 20
801.212890
 42
0.089688
  0
VERTEX
  8
0
 10
223.413935
 20
802.452375
 42
0.169422
  0
VERTEX
  8
0
 10
222.643051
 20
803.151245
 42
0.081294
  0
VERTEX
  8
0
 10
221.180062
 20
803.507017
 42
0.010866
  0
VERTEX
  8
0
 10
218.000000
 20
803.680787
 42
-0.000383
  0
VERTEX
  8
0
 10
215.791413
 20
803.755078
 42
-0.000453
  0
VERTEX
  8
0
 10
213.703723
 20
803.828799
 42
-0.000394
  0
VERTEX
  8
0
 10
211.941542
 20
803.894018
 42
-0.002884
  0
VERTEX
  8
0
 10
211.097780
 20
803.930787
 42
-0.550509
  0
VERTEX
  8
0
 10
210.885440
 20
804.305976
 42
-0.030629
  0
VERTEX
  8
0
 10
211.739730
 20
805.690968
 42
-0.024547
  0
VERTEX
  8
0
 10
213.218464
 20
807.584474
 42
-0.012420
  0
VERTEX
  8
0
 10
215.252777
 20
809.826162
 42
0.030535
  0
VERTEX
  8
0
 10
219.356053
 20
814.690586
 42
0.069973
  0
VERTEX
  8
0
 10
221.649706
 20
818.889545
 42
0.093107
  0
VERTEX
  8
0
 10
222.330185
 20
822.748173
 42
0.096462
  0
VERTEX
  8
0
 10
221.548095
 20
826.539136
 42
0.055690
  0
VERTEX
  8
0
 10
220.487581
 20
828.448306
 42
0.093252
  0
VERTEX
  8
0
 10
219.169131
 20
829.717896
 42
0.070212
  0
VERTEX
  8
0
 10
217.214045
 20
830.639175
 42
0.020637
  0
VERTEX
  8
0
 10
214.000000
 20
831.490397
 42
0.029769
  0
VERTEX
  8
0
 10
213.352379
 20
831.593655
 42
0.023840
  0
VERTEX
  8
0
 10
212.646875
 20
831.629611
 42
0.024437
  0
VERTEX
  8
0
 10
211.989269
 20
831.599593
 42
0.054671
  0
SEQEND
  0
POLYLINE
  8
0
 66
1
 70
1
  0
VERTEX
  8
0
 10
171.263351
 20
742.052299
 42
-0.039067
  0
VERTEX
  8
0
 10
170.348459
 20
741.212418
 42
-0.091545
  0
VERTEX
  8
0
 10
169.529000
 20
740.783711
 42
-0.119262
  0
VERTEX
  8
0
 10
168.752549
 20
740.735493
 42
-0.097434
  0
VERTEX
  8
0
 10
167.974396
 20
741.036986
 42
0.083949
  0
VERTEX
  8
0
 10
167.109345
 20
741.399047
 42
0.019241
  0
VERTEX
  8
0
 10
165.548013
 20
741.699984
 42
0.019367
  0
VERTEX
  8
0
 10
163.698086
 20
741.910299
 42
0.017808
  0
VERTEX
  8
0
 10
161.784796
 20
741.984687
 42
0.027501
  0
VERTEX
  8
0
 10
159.216685
 20
741.851694
 42
0.061656
  0
VERTEX
  8
0
 10
157.318513
 20
741.407483
 42
0.062691
  0
VERTEX
  8
0
 10
155.605265
 20
740.519335
 42
0.029272
  0
VERTEX
  8
0
 10
153.629669
 20
738.979707
 42
0.103254
  0
VERTEX
  8
0
 10
150.217375
 20
734.439297
 42
0.077658
  0
VERTEX
  8
0
 10
148.464089
 20
728.425997
 42
0.073891
  0
VERTEX
  8
0
 10
148.587465
 20
721.869644
 42
0.077887
  0
VERTEX
  8
0
 10
150.624587
 20
715.759074
 42
-0.024104
  0
VERTEX
  8
0
 10
151.374865
 20
714.119030
 42
-0.099823
  0
VERTEX
  8
0
 10
151.570930
 20
713.052871
 42
-0.113396
  0
VERTEX
  8
0
 10
151.326365
 20
712.066094
 42
-0.035575
  0
VERTEX
  8
0
 10
150.538857
 20
710.752013
 42
0.013544
  0
VERTEX
  8
0
 10
149.949634
 20
709.860324
 42
0.016746
  0
VERTEX
  8
0
 10
149.452039
 20
708.997967
 42
0.015199
  0
VERTEX
  8
0
 10
149.085023
 20
708.256192
 42
0.107680
  0
VERTEX
  8
0
 10
149.000000
 20
707.865978
 42
0.383962
  0
VERTEX
  8
0
 10
149.480500
 20
707.332512
 42
0.113520
  0
VERTEX
  8
0
 10
150.670283
 20
707.478019
 42
0.070720
  0
VERTEX
  8
0
 10
152.166431
 20
708.274069
 42
0.077467
  0
VERTEX
  8
0
 10
153.328974
 20
709.435221
 42
-0.045470
  0
VERTEX
  8
0
 10
154.108483
 20
710.319965
 42
-0.140670
  0
VERTEX
  8
0
 10
154.808599
 20
710.682819
 42
-0.133800
  0
VERTEX
  8
0
 10
155.616641
 20
710.628303
 42
-0.039523
  0
VERTEX
  8
0
 10
156.763424
 20
710.126612
 42
0.119317
  0
VERTEX
  8
0
 10
161.139894
 20
708.990979
 42
0.090646
  0
VERTEX
  8
0
 10
166.046328
 20
709.805055
 42
0.086922
  0
VERTEX
  8
0
 10
170.524981
 20
712.361208
 42
0.097035
  0
VERTEX
  8
0
 10
173.667756
 20
716.205777
 42
0.084212
  0
VERTEX
  8
0
 10
175.067188
 20
720.375521
 42
0.038791
  0
VERTEX
  8
0
 10
175.516107
 20
726.102064
 42
0.038530
  0
VERTEX
  8
0
 10
175.087901
 20
731.700917
 42
0.107078
  0
VERTEX
  8
0
 10
173.680969
 20
735.364151
 42
-0.021275
  0
VERTEX
  8
0
 10
172.676104
 20
737.050080
 42
-0.112127
  0
VERTEX
  8
0
 10
172.388981
 20
738.080991
 42
-0.127170
  0
VERTEX
  8
0
 10
172.594201
 20
739.069627
 42
-0.030606
  0
VERTEX
  8
0
 10
173.430969
 20
740.534989
 42
0.009477
  0
VERTEX
  8
0
 10
174.031907
 20
741.491191
 42
0.012616
  0
VERTEX
  8
0
 10
174.539097
 20
742.383417
 42
0.009919
  0
VERTEX
  8
0
 10
174.925440
 20
743.140542
 42
0.113483
  0
VERTEX
  8
0
 10
175.000000
 20
743.464817
 42
0.345174
  0
VERTEX
  8
0
 10
174.625712
 20
743.942393
 42
0.151834
  0
VERTEX
  8
0
 10
173.771970
 20
743.891067
 42
0.072888
  0
VERTEX
  8
0
 10
172.530952
 20
743.201882
 42
0.042105
  0
SEQEND
  0
POLYLINE
  8
0
 66
1
 70
1
  0
VERTEX
  8
0
 10
165.845905
 20
737.116398
 42
-0.306921
  0
VERTEX
  8
0
 10
166.223500
 20
736.248424
 42
-0.059914
  0
VERTEX
  8
0
 10
165.684002
 20
734.534403
 42
-0.030332
  0
VERTEX
  8
0
 10
164.237814
 20
731.791917
 42
-0.006277
  0
VERTEX
  8
0
 10
161.345905
 20
727.163523
 42
-0.004978
  0
VERTEX
  8
0
 10
159.054224
 20
723.673136
 42
-0.007835
  0
VERTEX
  8
0
 10
157.010233
 20
720.727375
 42
-0.002964
  0
VERTEX
  8
0
 10
155.215378
 20
718.256351
 42
-0.226655
  0
VERTEX
  8
0
 10
154.795313
 20
718.031812
 42
-0.366179
  0
VERTEX
  8
0
 10
153.947886
 20
718.685328
 42
-0.023603
  0
VERTEX
  8
0
 10
153.397246
 20
721.999341
 42
-0.029793
  0
VERTEX
  8
0
 10
153.172720
 20
725.873809
 42
-0.036809
  0
VERTEX
  8
0
 10
153.444585
 20
729.479030
 42
-0.102935
  0
VERTEX
  8
0
 10
155.048290
 20
733.818480
 42
-0.115423
  0
VERTEX
  8
0
 10
158.203300
 20
736.951012
 42
-0.130101
  0
VERTEX
  8
0
 10
162.110641
 20
738.130835
 42
-0.150974
  0
SEQEND
  0
POLYLINE
  8
0
 66
1
 70
1
  0
VERTEX
  8
0
 10
170.929715
 20
725.700340
 42
-0.046578
  0
VERTEX
  8
0
 10
170.604569
 20
721.563990
 42
-0.074494
  0
VERTEX
  8
0
 10
169.491184
 20
718.207011
 42
-0.086781
  0
VERTEX
  8
0
 10
167.604723
 20
715.684310
 42
-0.090970
  0
VERTEX
  8
0
 10
165.002099
 20
714.000869
 42
-0.029713
  0
VERTEX
  8
0
 10
163.353871
 20
713.430244
 42
-0.063375
  0
VERTEX
  8
0
 10
162.022688
 20
713.232730
 42
-0.069515
  0
VERTEX
  8
0
 10
160.764326
 20
713.382020
 42
-0.042684
  0
VERTEX
  8
0
 10
159.355554
 20
713.883860
 42
-0.084740
  0
VERTEX
  8
0
 10
157.851732
 20
714.905198
 42
-0.307862
  0
VERTEX
  8
0
 10
157.625519
 20
715.978042
 42
-0.048133
  0
VERTEX
  8
0
 10
158.618706
 20
717.859554
 42
-0.000869
  0
VERTEX
  8
0
 10
164.878393
 20
727.338801
 42
-0.012005
  0
VERTEX
  8
0
 10
168.293697
 20
732.231929
 42
-0.309840
  0
VERTEX
  8
0
 10
169.742028
 20
732.738559
 42
-0.320812
  0
VERTEX
  8
0
 10
170.696941
 20
731.570888
 42
-0.012494
  0
SEQEND
  0
POLYLINE
  8
0
 66
1
 70
1
  0
VERTEX
  8
0
 10
180.750000
 20
741.310674
 42
0.105950
  0
VERTEX
  8
0
 10
180.025516
 20
740.945643
 42
0.091145
  0
VERTEX
  8
0
 10
179.467799
 20
740.298317
 42
0.078414
  0
VERTEX
  8
0
 10
179.117688
 20
739.403294
 42
0.054145
  0
VERTEX
  8
0
 10
179.000000
 20
738.319687
 42
0.026825
  0
VERTEX
  8
0
 10
179.069389
 20
737.027251
 42
0.169401
  0
VERTEX
  8
0
 10
179.347747
 20
736.440389
 42
0.247014
  0
VERTEX
  8
0
 10
179.860727
 20
736.277222
 42
0.058324
  0
VERTEX
  8
0
 10
180.750000
 20
736.545394
 42
-0.049736
  0
VERTEX
  8
0
 10
183.395453
 20
737.392855
 42
-0.041340
  0
VERTEX
  8
0
 10
186.327232
 20
737.770163
 42
-0.042615
  0
VERTEX
  8
0
 10
188.951130
 20
737.665627
 42
-0.142893
  0
VERTEX
  8
0
 10
190.513773
 20
736.988569
 42
-0.196578
  0
VERTEX
  8
0
 10
191.998749
 20
734.203631
 42
-0.119195
  0
VERTEX
  8
0
 10
191.486497
 20
730.449429
 42
-0.074013
  0
VERTEX
  8
0
 10
188.833072
 20
725.821982
 42
-0.032151
  0
VERTEX
  8
0
 10
184.078455
 20
720.537592
 42
0.015235
  0
VERTEX
  8
0
 10
181.680367
 20
718.047046
 42
0.039005
  0
VERTEX
  8
0
 10
180.150496
 20
716.067876
 42
0.055076
  0
VERTEX
  8
0
 10
179.287952
 20
714.370011
 42
0.090244
  0
VERTEX
  8
0
 10
179.000000
 20
712.787592
 42
0.000000
  0
VERTEX
  8
0
 10
179.000000
 20
710.000000
 42
0.000000
  0
VERTEX
  8
0
 10
188.500000
 20
710.000000
 42
0.004147
  0
VERTEX
  8
0
 10
194.300346
 20
710.048109
 42
0.047763
  0
VERTEX
  8
0
 10
196.562500
 20
710.302632
 42
0.164310
  0
VERTEX
  8
0
 10
197.595672
 20
710.912441
 42
0.179874
  0
VERTEX
  8
0
 10
198.000000
 20
712.000000
 42
0.142406
  0
VERTEX
  8
0
 10
197.688767
 20
713.070611
 42
0.183695
  0
VERTEX
  8
0
 10
196.875000
 20
713.678571
 42
0.063075
  0
VERTEX
  8
0
 10
195.135837
 20
713.945542
 42
0.006583
  0
VERTEX
  8
0
 10
191.000000
 20
714.000000
 42
-0.007571
  0
VERTEX
  8
0
 10
188.316008
 20
714.040642
 42
-0.012570
  0
VERTEX
  8
0
 10
186.056250
 20
714.166008
 42
-0.006189
  0
VERTEX
  8
0
 10
184.203789
 20
714.338667
 42
-0.383693
  0
VERTEX
  8
0
 10
184.000000
 20
714.565133
 42
-0.180057
  0
VERTEX
  8
0
 10
184.135838
 20
714.930110
 42
-0.003386
  0
VERTEX
  8
0
 10
185.499861
 20
716.487313
 42
-0.007808
  0
VERTEX
  8
0
 10
187.149038
 20
718.287119
 42
-0.005089
  0
VERTEX
  8
0
 10
189.105910
 20
720.315133
 42
0.016220
  0
VERTEX
  8
0
 10
191.168825
 20
722.550541
 42
0.014872
  0
VERTEX
  8
0
 10
193.145256
 20
724.979119
 42
0.015066
  0
VERTEX
  8
0
 10
194.778493
 20
727.251243
 42
0.046290
  0
VERTEX
  8
0
 10
195.686874
 20
728.911656
 42
0.071015
  0
VERTEX
  8
0
 10
196.578174
 20
732.179215
 42
0.073020
  0
VERTEX
  8
0
 10
196.506788
 20
735.533565
 42
0.079993
  0
VERTEX
  8
0
 10
195.516820
 20
738.455137
 42
0.118914
  0
VERTEX
  8
0
 10
193.737573
 20
740.471258
 42
0.106845
  0
VERTEX
  8
0
 10
191.594002
 20
741.372824
 42
0.030185
  0
VERTEX
  8
0
 10
187.978779
 20
741.826710
 42
0.031000
  0
VERTEX
  8
0
 10
184.062141
 20
741.836744
 42
0.049087
  0
SEQEND
  0
POLYLINE
  8
0
 66
1
 70
1
  0
VERTEX
  8
0
 10
205.207749
 20
739.721139
 42
0.125022
  0
VERTEX
  8
0
 10
202.455337
 20
734.747322
 42
0.053007
  0
VERTEX
  8
0
 10
201.302210
 20
727.156898
 42
0.052411
  0
VERTEX
  8
0
 10
201.776266
 20
719.248868
 42
0.095736
  0
VERTEX
  8
0
 10
204.017940
 20
713.210896
 42
0.131995
  0
VERTEX
  8
0
 10
207.306403
 20
710.073189
 42
0.138593
  0
VERTEX
  8
0
 10
211.662020
 20
709.080699
 42
0.135149
  0
VERTEX
  8
0
 10
215.975896
 20
710.510569
 42
0.123065
  0
VERTEX
  8
0
 10
219.133441
 20
713.988397
 42
0.046471
  0
VERTEX
  8
0
 10
220.006440
 20
716.056734
 42
0.035640
  0
VERTEX
  8
0
 10
220.578573
 20
718.443551
 42
0.028005
  0
VERTEX
  8
0
 10
220.899467
 20
721.402659
 42
0.013007
  0
VERTEX
  8
0
 10
221.000000
 20
725.266517
 42
0.025707
  0
VERTEX
  8
0
 10
220.700466
 20
731.088639
 42
0.049449
  0
VERTEX
  8
0
 10
219.765779
 20
735.661473
 42
0.065453
  0
VERTEX
  8
0
 10
218.244799
 20
738.967762
 42
0.130107
  0
VERTEX
  8
0
 10
216.150400
 20
740.919509
 42
0.081730
  0
VERTEX
  8
0
 10
213.370426
 20
741.866437
 42
0.068677
  0
VERTEX
  8
0
 10
210.255804
 20
741.953858
 42
0.071413
  0
VERTEX
  8
0
 10
207.356588
 20
741.208426
 42
0.105984
  0
SEQEND
  0
POLYLINE
  8
0
 66
1
 70
1
  0
VERTEX
  8
0
 10
213.855621
 20
737.110393
 42
-0.217915
  0
VERTEX
  8
0
 10
215.980041
 20
733.845682
 42
-0.035763
  0
VERTEX
  8
0
 10
216.568700
 20
726.141984
 42
-0.036883
  0
VERTEX
  8
0
 10
216.030609
 20
718.351991
 42
-0.174884
  0
VERTEX
  8
0
 10
213.963584
 20
714.467044
 42
-0.119558
  0
VERTEX
  8
0
 10
212.085034
 20
713.446687
 42
-0.153502
  0
VERTEX
  8
0
 10
210.131116
 20
713.534740
 42
-0.130958
  0
VERTEX
  8
0
 10
208.353308
 20
714.777535
 42
-0.077044
  0
VERTEX
  8
0
 10
206.996940
 20
717.007387
 42
-0.087939
  0
VERTEX
  8
0
 10
206.151836
 20
720.835610
 42
-0.021926
  0
VERTEX
  8
0
 10
206.164712
 20
727.269426
 42
-0.019162
  0
VERTEX
  8
0
 10
206.700292
 20
733.617832
 42
-0.143534
  0
VERTEX
  8
0
 10
207.884873
 20
736.361280
 42
-0.090099
  0
VERTEX
  8
0
 10
209.134786
 20
737.410569
 42
-0.098779
  0
VERTEX
  8
0
 10
210.634846
 20
737.910555
 42
-0.095207
  0
VERTEX
  8
0
 10
212.256903
 20
737.804924
 42
-0.077636
  0
SEQEND
  0
POLYLINE
  8
0
 66
1
 70
1
  0
VERTEX
  8
0
 10
638.475761
 20
364.604057
 42
0.110614
  0
VERTEX
  8
0
 10
635.550998
 20
362.466057
 42
0.095661
  0
VERTEX
  8
0
 10
633.630152
 20
359.176347
 42
0.095947
  0
VERTEX
  8
0
 10
633.075640
 20
355.416905
 42
0.112099
  0
VERTEX
  8
0
 10
634.029644
 20
351.944609
 42
0.113872
  0
VERTEX
  8
0
 10
636.074840
 20
349.604095
 42
0.074016
  0
VERTEX
  8
0
 10
639.277307
 20
347.944566
 42
0.055452
  0
VERTEX
  8
0
 10
643.713145
 20
346.954723
 42
0.027196
  0
VERTEX
  8
0
 10
649.500000
 20
346.639728
 42
0.027097
  0
VERTEX
  8
0
 10
655.952499
 20
346.989677
 42
0.076701
  0
VERTEX
  8
0
 10
660.297220
 20
348.152287
 42
0.110114
  0
VERTEX
  8
0
 10
663.163418
 20
350.259300
 42
0.100023
  0
VERTEX
  8
0
 10
664.984887
 20
353.454206
 42
0.081879
  0
VERTEX
  8
0
 10
665.498303
 20
356.731829
 42
0.106577
  0
VERTEX
  8
0
 10
664.836030
 20
359.688351
 42
0.101252
  0
VERTEX
  8
0
 10
662.974448
 20
362.217385
 42
0.067859
  0
VERTEX
  8
0
 10
659.998853
 20
364.248446
 42
0.085058
  0
VERTEX
  8
0
 10
655.840644
 20
365.506159
 42
0.026879
  0
VERTEX
  8
0
 10
649.346374
 20
365.963235
 42
0.027063
  0
VERTEX
  8
0
 10
642.812827
 20
365.717508
 42
0.079968
  0
SEQEND
  0
POLYLINE
  8
0
 66
1
 70
1
  0
VERTEX
  8
0
 10
660.095902
 20
359.348542
 42
-0.106953
  0
VERTEX
  8
0
 10
661.405094
 20
357.316337
 42
-0.148787
  0
VERTEX
  8
0
 10
661.542248
 20
355.169559
 42
-0.145155
  0
VERTEX
  8
0
 10
660.456207
 20
353.272321
 42
-0.100152
  0
VERTEX
  8
0
 10
658.349331
 20
351.942716
 42
-0.075734
  0
VERTEX
  8
0
 10
654.786579
 20
351.175362
 42
-0.019946
  0
VERTEX
  8
0
 10
648.938466
 20
351.052091
 42
-0.019043
  0
VERTEX
  8
0
 10
643.141807
 20
351.382234
 42
-0.093109
  0
VERTEX
  8
0
 10
640.000000
 20
352.287913
 42
-0.060404
  0
VERTEX
  8
0
 10
638.930136
 20
352.999611
 42
-0.062558
  0
VERTEX
  8
0
 10
638.075602
 20
353.938913
 42
-0.062819
  0
VERTEX
  8
0
 10
637.482661
 20
355.056606
 42
-0.061802
  0
VERTEX
  8
0
 10
637.181691
 20
356.292723
 42
-0.192976
  0
VERTEX
  8
0
 10
637.873042
 20
358.831403
 42
-0.136182
  0
VERTEX
  8
0
 10
640.248063
 20
360.647992
 42
-0.077377
  0
VERTEX
  8
0
 10
644.513125
 20
361.636767
 42
-0.028079
  0
VERTEX
  8
0
 10
650.741211
 20
361.744018
 42
-0.011733
  0
VERTEX
  8
0
 10
654.543087
 20
361.506519
 42
-0.041232
  0
VERTEX
  8
0
 10
656.958302
 20
361.096234
 42
-0.063261
  0
VERTEX
  8
0
 10
658.674314
 20
360.416722
 42
-0.070618
  0
SEQEND
  0
POLYLINE
  8
0
 66
1
 70
1
  0
VERTEX
  8
0
 10
634.000000
 20
334.000000
 42
0.003852
  0
VERTEX
  8
0
 10
634.047257
 20
327.866382
 42
0.045528
  0
VERTEX
  8
0
 10
634.300000
 20
325.500000
 42
0.160003
  0
VERTEX
  8
0
 10
634.909584
 20
324.422160
 42
0.186821
  0
VERTEX
  8
0
 10
636.000000
 20
324.000000
 42
0.150217
  0
VERTEX
  8
0
 10
637.074609
 20
324.330303
 42
0.180365
  0
VERTEX
  8
0
 10
637.683333
 20
325.187500
 42
0.059311
  0
VERTEX
  8
0
 10
637.947194
 20
327.031606
 42
0.005909
  0
VERTEX
  8
0
 10
638.000000
 20
331.500000
 42
-0.008030
  0
VERTEX
  8
0
 10
638.046187
 20
334.375684
 42
-0.013324
  0
VERTEX
  8
0
 10
638.188636
 20
336.796875
 42
-0.006928
  0
VERTEX
  8
0
 10
638.385212
 20
338.770588
 42
-0.381455
  0
VERTEX
  8
0
 10
638.642164
 20
339.000000
 42
-0.116385
  0
VERTEX
  8
0
 10
639.111316
 20
338.889296
 42
-0.000862
  0
VERTEX
  8
0
 10
642.694911
 20
337.090625
 42
-0.003182
  0
VERTEX
  8
0
 10
646.794072
 20
334.991503
 42
-0.002028
  0
VERTEX
  8
0
 10
651.536987
 20
332.500000
 42
0.002131
  0
VERTEX
  8
0
 10
656.282184
 20
330.008541
 42
0.003333
  0
VERTEX
  8
0
 10
660.388630
 20
327.909375
 42
0.000944
  0
VERTEX
  8
0
 10
663.972984
 20
326.115604
 42
0.116045
  0
VERTEX
  8
0
 10
664.464375
 20
326.000000
 42
0.300009
  0
VERTEX
  8
0
 10
664.701534
 20
326.156375
 42
0.062173
  0
VERTEX
  8
0
 10
664.847033
 20
326.660937
 42
0.046543
  0
VERTEX
  8
0
 10
664.893271
 20
327.387605
 42
0.027909
  0
VERTEX
  8
0
 10
664.819551
 20
328.250000
 42
0.171495
  0
VERTEX
  8
0
 10
664.068944
 20
329.689090
 42
0.039590
  0
VERTEX
  8
0
 10
661.894616
 20
331.415980
 42
0.023624
  0
VERTEX
  8
0
 10
658.129387
 20
333.697743
 42
0.005304
  0
VERTEX
  8
0
 10
651.500000
 20
337.208092
 42
0.006300
  0
VERTEX
  8
0
 10
646.356456
 20
339.780663
 42
0.008618
  0
VERTEX
  8
0
 10
641.657812
 20
341.957993
 42
0.006001
  0
VERTEX
  8
0
 10
637.689498
 20
343.657798
 42
0.093792
  0
VERTEX
  8
0
 10
636.250000
 20
343.958092
 42
0.147373
  0
VERTEX
  8
0
 10
634.983744
 20
343.602165
 42
0.198010
  0
VERTEX
  8
0
 10
634.305202
 20
342.637861
 42
0.052187
  0
VERTEX
  8
0
 10
634.043925
 20
340.432727
 42
0.003414
  0
SEQEND
  0
POLYLINE
  8
0
 66
1
 70
1
  0
VERTEX
  8
0
 10
527.588894
 20
345.923275
 42
0.057857
  0
VERTEX
  8
0
 10
525.958666
 20
343.456179
 42
0.078670
  0
VERTEX
  8
0
 10
525.142650
 20
340.920276
 42
0.084101
  0
VERTEX
  8
0
 10
525.176824
 20
338.389252
 42
0.077678
  0
VERTEX
  8
0
 10
526.035184
 20
335.934259
 42
-0.251032
  0
VERTEX
  8
0
 10
526.034468
 20
334.510137
 42
-0.323821
  0
VERTEX
  8
0
 10
524.892800
 20
333.955739
 42
-0.100498
  0
VERTEX
  8
0
 10
522.409357
 20
334.932109
 42
-0.052670
  0
VERTEX
  8
0
 10
519.817215
 20
337.028939
 42
-0.024054
  0
VERTEX
  8
0
 10
518.205365
 20
338.803810
 42
-0.084831
  0
VERTEX
  8
0
 10
517.442432
 20
340.136467
 42
-0.097060
  0
VERTEX
  8
0
 10
517.218815
 20
341.547463
 42
-0.037294
  0
VERTEX
  8
0
 10
517.439451
 20
343.528939
 42
0.015813
  0
VERTEX
  8
0
 10
517.742431
 20
345.483067
 42
0.122430
  0
VERTEX
  8
0
 10
517.631303
 20
346.393580
 42
0.233050
  0
VERTEX
  8
0
 10
517.138937
 20
346.850224
 42
0.072589
  0
VERTEX
  8
0
 10
516.112701
 20
347.000000
 42
0.090448
  0
VERTEX
  8
0
 10
515.310340
 20
346.853659
 42
0.070977
  0
VERTEX
  8
0
 10
514.533910
 20
346.426942
 42
0.070256
  0
VERTEX
  8
0
 10
513.900595
 20
345.794732
 42
0.084867
  0
VERTEX
  8
0
 10
513.515605
 20
345.049166
 42
0.109401
  0
VERTEX
  8
0
 10
513.291573
 20
342.549777
 42
0.040118
  0
VERTEX
  8
0
 10
514.030685
 20
339.060411
 42
0.040282
  0
VERTEX
  8
0
 10
515.333577
 20
335.695738
 42
0.096615
  0
VERTEX
  8
0
 10
516.929586
 20
333.563723
 42
0.099962
  0
VERTEX
  8
0
 10
521.534535
 20
330.826475
 42
0.053987
  0
VERTEX
  8
0
 10
527.984219
 20
329.321957
 42
0.053707
  0
VERTEX
  8
0
 10
534.669286
 20
329.228411
 42
0.092791
  0
VERTEX
  8
0
 10
539.998853
 20
330.751554
 42
0.070056
  0
VERTEX
  8
0
 10
543.027306
 20
332.838165
 42
0.102237
  0
VERTEX
  8
0
 10
544.914157
 20
335.459799
 42
0.103922
  0
VERTEX
  8
0
 10
545.589172
 20
338.581198
 42
0.074379
  0
VERTEX
  8
0
 10
545.079994
 20
342.127341
 42
0.083502
  0
VERTEX
  8
0
 10
543.611005
 20
345.109427
 42
0.096704
  0
VERTEX
  8
0
 10
541.305936
 20
347.272620
 42
0.086586
  0
VERTEX
  8
0
 10
538.138534
 20
348.567595
 42
0.053894
  0
VERTEX
  8
0
 10
534.138554
 20
349.000000
 42
0.034208
  0
VERTEX
  8
0
 10
532.007173
 20
348.854010
 42
0.075740
  0
VERTEX
  8
0
 10
530.448712
 20
348.392391
 42
0.075065
  0
VERTEX
  8
0
 10
529.089907
 20
347.484547
 42
0.033121
  0
SEQEND
  0
POLYLINE
  8
0
 66
1
 70
1
  0
VERTEX
  8
0
 10
540.000000
 20
343.000000
 42
-0.147654
  0
VERTEX
  8
0
 10
541.714351
 20
339.802954
 42
-0.214982
  0
VERTEX
  8
0
 10
541.012788
 20
336.730581
 42
-0.163568
  0
VERTEX
  8
0
 10
537.930803
 20
334.628778
 42
-0.089329
  0
VERTEX
  8
0
 10
533.326443
 20
334.185077
 42
-0.021969
  0
VERTEX
  8
0
 10
531.023347
 20
334.476925
 42
-0.149989
  0
VERTEX
  8
0
 10
530.013509
 20
334.987018
 42
-0.157055
  0
VERTEX
  8
0
 10
529.487695
 20
335.964015
 42
-0.024754
  0
VERTEX
  8
0
 10
529.195299
 20
338.154982
 42
-0.030289
  0
VERTEX
  8
0
 10
529.152242
 20
340.058681
 42
-0.080536
  0
VERTEX
  8
0
 10
529.419817
 20
341.387730
 42
-0.095422
  0
VERTEX
  8
0
 10
530.058459
 20
342.430167
 42
-0.055018
  0
VERTEX
  8
0
 10
531.167806
 20
343.404982
 42
-0.070890
  0
VERTEX
  8
0
 10
533.491159
 20
344.583617
 42
-0.093710
  0
VERTEX
  8
0
 10
535.835774
 20
344.916542
 42
-0.098591
  0
VERTEX
  8
0
 10
538.050081
 20
344.369104
 42
-0.086838
  0
SEQEND
  0
POLYLINE
  8
0
 66
1
 70
1
  0
VERTEX
  8
0
 10
530.356999
 20
325.059593
 42
0.118297
  0
VERTEX
  8
0
 10
527.449397
 20
322.897348
 42
0.094727
  0
VERTEX
  8
0
 10
525.549092
 20
319.475851
 42
0.093220
  0
VERTEX
  8
0
 10
525.026273
 20
315.543802
 42
0.109859
  0
VERTEX
  8
0
 10
526.035184
 20
311.934259
 42
-0.036458
  0
VERTEX
  8
0
 10
526.655051
 20
310.540645
 42
-0.477575
  0
VERTEX
  8
0
 10
526.399368
 20
310.119338
 42
-0.127608
  0
VERTEX
  8
0
 10
525.480028
 20
310.229822
 42
-0.005583
  0
VERTEX
  8
0
 10
522.461520
 20
311.451631
 42
-0.079794
  0
VERTEX
  8
0
 10
519.969551
 20
312.996767
 42
-0.092071
  0
VERTEX
  8
0
 10
518.229379
 20
315.180243
 42
-0.094647
  0
VERTEX
  8
0
 10
517.420209
 20
317.791109
 42
-0.089666
  0
VERTEX
  8
0
 10
517.606774
 20
320.569398
 42
0.031203
  0
VERTEX
  8
0
 10
517.844544
 20
321.850432
 42
0.168536
  0
VERTEX
  8
0
 10
517.697241
 20
322.532163
 42
0.208545
  0
VERTEX
  8
0
 10
517.183950
 20
322.893106
 42
0.050460
  0
VERTEX
  8
0
 10
516.127460
 20
323.000000
 42
0.319588
  0
VERTEX
  8
0
 10
513.831746
 20
321.365713
 42
0.138718
  0
VERTEX
  8
0
 10
513.603541
 20
317.422031
 42
0.088472
  0
VERTEX
  8
0
 10
515.677834
 20
312.437691
 42
0.092403
  0
VERTEX
  8
0
 10
519.323330
 20
308.564534
 42
0.058148
  0
VERTEX
  8
0
 10
521.197819
 20
307.503135
 42
0.056258
  0
VERTEX
  8
0
 10
523.287184
 20
306.887239
 42
0.035074
  0
VERTEX
  8
0
 10
526.203214
 20
306.582461
 42
0.008505
  0
VERTEX
  8
0
 10
531.050603
 20
306.500000
 42
0.006736
  0
VERTEX
  8
0
 10
536.505066
 20
306.573484
 42
0.051242
  0
VERTEX
  8
0
 10
539.049522
 20
306.904426
 42
0.092271
  0
VERTEX
  8
0
 10
540.819129
 20
307.685685
 42
0.046440
  0
VERTEX
  8
0
 10
542.704545
 20
309.250000
 42
0.094854
  0
VERTEX
  8
0
 10
544.803984
 20
312.343534
 42
0.098809
  0
VERTEX
  8
0
 10
545.572954
 20
315.948931
 42
0.100130
  0
VERTEX
  8
0
 10
544.896605
 20
319.534526
 42
0.100174
  0
VERTEX
  8
0
 10
542.879854
 20
322.574691
 42
0.089162
  0
VERTEX
  8
0
 10
540.328754
 20
324.348394
 42
0.058518
  0
VERTEX
  8
0
 10
536.915111
 20
325.452380
 42
0.058683
  0
VERTEX
  8
0
 10
533.351777
 20
325.733224
 42
0.091592
  0
SEQEND
  0
POLYLINE
  8
0
 66
1
 70
1
  0
VERTEX
  8
0
 10
540.428571
 20
319.428571
 42
-0.079951
  0
VERTEX
  8
0
 10
541.419599
 20
318.057394
 42
-0.083532
  0
VERTEX
  8
0
 10
541.911513
 20
316.464900
 42
-0.086498
  0
VERTEX
  8
0
 10
541.847331
 20
314.846845
 42
-0.094409
  0
VERTEX
  8
0
 10
541.234687
 20
313.399704
 42
-0.137961
  0
VERTEX
  8
0
 10
538.832882
 20
311.344138
 42
-0.069762
  0
VERTEX
  8
0
 10
534.990453
 20
310.179127
 42
-0.076706
  0
VERTEX
  8
0
 10
531.358408
 20
310.171951
 42
-0.269572
  0
VERTEX
  8
0
 10
529.606989
 20
311.581787
 42
-0.064731
  0
VERTEX
  8
0
 10
529.092379
 20
313.711158
 42
-0.044999
  0
VERTEX
  8
0
 10
529.048024
 20
316.188143
 42
-0.045986
  0
VERTEX
  8
0
 10
529.420679
 20
318.440852
 42
-0.133167
  0
VERTEX
  8
0
 10
530.200000
 20
319.800000
 42
-0.157693
  0
VERTEX
  8
0
 10
532.072717
 20
320.757382
 42
-0.049058
  0
VERTEX
  8
0
 10
535.265609
 20
320.954765
 42
-0.049206
  0
VERTEX
  8
0
 10
538.473015
 20
320.520325
 42
-0.138994
  0
SEQEND
  0
POLYLINE
  8
0
 66
1
 70
1
  0
VERTEX
  8
0
 10
184.000000
 20
600.500000
 42
0.011522
  0
VERTEX
  8
0
 10
184.068623
 20
597.522473
 42
0.021620
  0
VERTEX
  8
0
 10
184.283333
 20
595.125000
 42
0.018508
  0
VERTEX
  8
0
 10
184.590162
 20
593.332853
 42
0.354925
  0
VERTEX
  8
0
 10
185.000000
 20
593.000000
 42
0.354925
  0
VERTEX
  8
0
 10
185.409838
 20
593.332853
 42
0.018508
  0
VERTEX
  8
0
 10
185.716667
 20
595.125000
 42
0.021620
  0
VERTEX
  8
0
 10
185.931377
 20
597.522473
 42
0.011522
  0
VERTEX
  8
0
 10
186.000000
 20
600.500000
 42
0.011522
  0
VERTEX
  8
0
 10
185.931377
 20
603.477527
 42
0.021620
  0
VERTEX
  8
0
 10
185.716667
 20
605.875000
 42
0.018508
  0
VERTEX
  8
0
 10
185.409838
 20
607.667147
 42
0.354925
  0
VERTEX
  8
0
 10
185.000000
 20
608.000000
 42
0.354925
  0
VERTEX
  8
0
 10
184.590162
 20
607.667147
 42
0.018508
  0
VERTEX
  8
0
 10
184.283333
 20
605.875000
 42
0.021620
  0
VERTEX
  8
0
 10
184.068623
 20
603.477527
 42
0.011522
  0
SEQEND
  0
POLYLINE
  8
0
 66
1
 70
1
  0
VERTEX
  8
0
 10
184.000000
 20
563.500000
 42
0.004191
  0
VERTEX
  8
0
 10
184.062020
 20
556.100683
 42
0.010080
  0
VERTEX
  8
0
 10
184.264286
 20
550.625000
 42
0.005057
  0
VERTEX
  8
0
 10
184.547335
 20
546.418956
 42
0.391747
  0
VERTEX
  8
0
 10
185.000000
 20
546.000000
 42
0.391747
  0
VERTEX
  8
0
 10
185.452665
 20
546.418956
 42
0.005057
  0
VERTEX
  8
0
 10
185.735714
 20
550.625000
 42
0.010080
  0
VERTEX
  8
0
 10
185.937980
 20
556.100683
 42
0.004191
  0
VERTEX
  8
0
 10
186.000000
 20
563.500000
 42
0.004191
  0
VERTEX
  8
0
 10
185.937980
 20
570.899317
 42
0.010080
  0
VERTEX
  8
0
 10
185.735714
 20
576.375000
 42
0.005057
  0
VERTEX
  8
0
 10
185.452665
 20
580.581044
 42
0.391747
  0
VERTEX
  8
0
 10
185.000000
 20
581.000000
 42
0.391747
  0
VERTEX
  8
0
 10
184.547335
 20
580.581044
 42
0.005057
  0
VERTEX
  8
0
 10
184.264286
 20
576.375000
 42
0.010080
  0
VERTEX
  8
0
 10
184.062020
 20
570.899317
 42
0.004191
  0
SEQEND
  0
POLYLINE
  8
0
 66
1
 70
1
  0
VERTEX
  8
0
 10
95.477655
 20
577.802365
 42
0.087053
  0
VERTEX
  8
0
 10
95.274362
 20
576.760707
 42
0.001686
  0
VERTEX
  8
0
 10
95.188161
 20
571.270665
 42
0.004010
  0
VERTEX
  8
0
 10
95.160475
 20
564.845281
 42
0.002671
  0
VERTEX
  8
0
 10
95.227129
 20
557.482127
 42
0.002075
  0
VERTEX
  8
0
 10
95.436280
 20
546.204031
 42
0.020711
  0
VERTEX
  8
0
 10
95.738737
 20
541.492527
 42
0.054174
  0
VERTEX
  8
0
 10
96.265444
 20
539.066232
 42
0.271102
  0
VERTEX
  8
0
 10
97.270952
 20
538.185561
 42
0.366816
  0
VERTEX
  8
0
 10
98.260321
 20
538.743296
 42
0.069890
  0
VERTEX
  8
0
 10
98.736356
 20
540.925597
 42
0.020523
  0
VERTEX
  8
0
 10
98.897111
 20
545.627255
 42
0.001630
  0
VERTEX
  8
0
 10
98.770952
 20
558.090038
 42
0.002949
  0
VERTEX
  8
0
 10
98.580328
 20
567.975563
 42
0.012071
  0
VERTEX
  8
0
 10
98.284529
 20
573.968437
 42
0.011158
  0
VERTEX
  8
0
 10
97.901903
 20
577.951335
 42
0.290665
  0
VERTEX
  8
0
 10
97.250526
 20
578.750555
 42
0.108610
  0
VERTEX
  8
0
 10
96.733720
 20
578.804943
 42
0.095187
  0
VERTEX
  8
0
 10
96.214337
 20
578.643526
 42
0.090801
  0
VERTEX
  8
0
 10
95.772245
 20
578.291669
 42
0.087989
  0
SEQEND
  0
POLYLINE
  8
0
 66
1
 70
1
  0
VERTEX
  8
0
 10
272.000000
 20
558.500000
 42
0.002122
  0
VERTEX
  8
0
 10
272.048580
 20
547.053506
 42
0.016140
  0
VERTEX
  8
0
 10
272.268293
 20
541.666667
 42
0.029936
  0
VERTEX
  8
0
 10
272.666708
 20
538.686378
 42
0.358821
  0
VERTEX
  8
0
 10
273.500000
 20
538.000000
 42
0.358821
  0
VERTEX
  8
0
 10
274.333292
 20
538.686378
 42
0.029936
  0
VERTEX
  8
0
 10
274.731707
 20
541.666667
 42
0.016140
  0
VERTEX
  8
0
 10
274.951420
 20
547.053506
 42
0.002122
  0
VERTEX
  8
0
 10
275.000000
 20
558.500000
 42
0.002122
  0
VERTEX
  8
0
 10
274.951420
 20
569.946494
 42
0.016140
  0
VERTEX
  8
0
 10
274.731707
 20
575.333333
 42
0.029936
  0
VERTEX
  8
0
 10
274.333292
 20
578.313622
 42
0.358821
  0
VERTEX
  8
0
 10
273.500000
 20
579.000000
 42
0.358821
  0
VERTEX
  8
0
 10
272.666708
 20
578.313622
 42
0.029936
  0
VERTEX
  8
0
 10
272.268293
 20
575.333333
 42
0.016140
  0
VERTEX
  8
0
 10
272.048580
 20
569.946494
 42
0.002122
  0
SEQEND
  0
POLYLINE
  8
0
 66
1
 70
1
  0
VERTEX
  8
0
 10
184.000000
 20
527.000000
 42
0.012590
  0
VERTEX
  8
0
 10
184.069433
 20
524.243014
 42
0.022889
  0
VERTEX
  8
0
 10
184.285714
 20
522.000000
 42
0.020168
  0
VERTEX
  8
0
 10
184.594567
 20
520.323933
 42
0.350432
  0
VERTEX
  8
0
 10
185.000000
 20
520.000000
 42
0.350432
  0
VERTEX
  8
0
 10
185.405433
 20
520.323933
 42
0.020168
  0
VERTEX
  8
0
 10
185.714286
 20
522.000000
 42
0.022889
  0
VERTEX
  8
0
 10
185.930567
 20
524.243014
 42
0.012590
  0
VERTEX
  8
0
 10
186.000000
 20
527.000000
 42
0.012590
  0
VERTEX
  8
0
 10
185.930567
 20
529.756986
 42
0.022889
  0
VERTEX
  8
0
 10
185.714286
 20
532.000000
 42
0.020168
  0
VERTEX
  8
0
 10
185.405433
 20
533.676067
 42
0.350432
  0
VERTEX
  8
0
 10
185.000000
 20
534.000000
 42
0.350432
  0
VERTEX
  8
0
 10
184.594567
 20
533.676067
 42
0.020168
  0
VERTEX
  8
0
 10
184.285714
 20
532.000000
 42
0.022889
  0
VERTEX
  8
0
 10
184.069433
 20
529.756986
 42
0.012590
  0
SEQEND
  0
POLYLINE
  8
0
 66
1
 70
1
  0
VERTEX
  8
0
 10
96.219908
 20
531.135911
 42
0.232967
  0
VERTEX
  8
0
 10
95.572015
 20
530.101249
 42
0.013460
  0
VERTEX
  8
0
 10
95.284561
 20
526.263775
 42
0.012497
  0
VERTEX
  8
0
 10
95.149855
 20
520.371358
 42
0.002875
  0
VERTEX
  8
0
 10
95.228267
 20
510.427552
 42
0.002262
  0
VERTEX
  8
0
 10
95.428582
 20
499.397302
 42
0.016500
  0
VERTEX
  8
0
 10
95.722912
 20
494.116547
 42
0.030050
  0
VERTEX
  8
0
 10
96.163304
 20
491.177957
 42
0.354287
  0
VERTEX
  8
0
 10
97.000000
 20
490.500000
 42
0.354290
  0
VERTEX
  8
0
 10
97.836699
 20
491.177967
 42
0.030049
  0
VERTEX
  8
0
 10
98.277089
 20
494.116667
 42
0.016499
  0
VERTEX
  8
0
 10
98.571419
 20
499.397602
 42
0.002262
  0
VERTEX
  8
0
 10
98.771735
 20
510.428265
 42
0.003709
  0
VERTEX
  8
0
 10
98.819570
 20
518.123332
 42
0.005835
  0
VERTEX
  8
0
 10
98.734495
 20
524.731755
 42
0.001885
  0
VERTEX
  8
0
 10
98.573373
 20
530.420918
 42
0.190587
  0
VERTEX
  8
0
 10
98.263376
 20
531.136624
 42
0.119754
  0
VERTEX
  8
0
 10
97.870317
 20
531.376005
 42
0.077405
  0
VERTEX
  8
0
 10
97.341318
 20
531.458204
 42
0.070348
  0
VERTEX
  8
0
 10
96.761213
 20
531.375973
 42
0.068180
  0
SEQEND
  0
POLYLINE
  8
0
 66
1
 70
1
  0
VERTEX
  8
0
 10
272.639480
 20
531.306147
 42
0.189721
  0
VERTEX
  8
0
 10
272.379978
 20
530.709756
 42
0.001236
  0
VERTEX
  8
0
 10
272.187847
 20
524.881597
 42
0.004679
  0
VERTEX
  8
0
 10
272.046132
 20
518.173985
 42
0.002942
  0
VERTEX
  8
0
 10
272.000000
 20
510.333333
 42
0.002142
  0
VERTEX
  8
0
 10
272.048630
 20
498.983679
 42
0.016268
  0
VERTEX
  8
0
 10
272.268443
 20
493.638889
 42
0.030316
  0
VERTEX
  8
0
 10
272.667509
 20
490.684242
 42
0.358224
  0
VERTEX
  8
0
 10
273.500000
 20
490.000000
 42
0.358611
  0
VERTEX
  8
0
 10
274.333009
 20
490.685625
 42
0.030070
  0
VERTEX
  8
0
 10
274.731655
 20
493.656831
 42
0.016185
  0
VERTEX
  8
0
 10
274.951402
 20
499.028780
 42
0.002129
  0
VERTEX
  8
0
 10
275.000000
 20
510.440983
 42
0.003688
  0
VERTEX
  8
0
 10
274.910873
 20
522.525541
 42
0.024481
  0
VERTEX
  8
0
 10
274.527142
 20
528.541257
 42
0.084631
  0
VERTEX
  8
0
 10
273.783502
 20
531.112695
 42
0.516114
  0
SEQEND
  0
POLYLINE
  8
0
 66
1
 70
1
  0
VERTEX
  8
0
 10
184.000000
 20
490.500000
 42
0.004191
  0
VERTEX
  8
0
 10
184.062020
 20
483.100683
 42
0.010080
  0
VERTEX
  8
0
 10
184.264286
 20
477.625000
 42
0.005057
  0
VERTEX
  8
0
 10
184.547335
 20
473.418956
 42
0.391747
  0
VERTEX
  8
0
 10
185.000000
 20
473.000000
 42
0.391747
  0
VERTEX
  8
0
 10
185.452665
 20
473.418956
 42
0.005057
  0
VERTEX
  8
0
 10
185.735714
 20
477.625000
 42
0.010080
  0
VERTEX
  8
0
 10
185.937980
 20
483.100683
 42
0.004191
  0
VERTEX
  8
0
 10
186.000000
 20
490.500000
 42
0.004191
  0
VERTEX
  8
0
 10
185.937980
 20
497.899317
 42
0.010080
  0
VERTEX
  8
0
 10
185.735714
 20
503.375000
 42
0.005057
  0
VERTEX
  8
0
 10
185.452665
 20
507.581044
 42
0.391747
  0
VERTEX
  8
0
 10
185.000000
 20
508.000000
 42
0.391747
  0
VERTEX
  8
0
 10
184.547335
 20
507.581044
 42
0.005057
  0
VERTEX
  8
0
 10
184.264286
 20
503.375000
 42
0.010080
  0
VERTEX
  8
0
 10
184.062020
 20
497.899317
 42
0.004191
  0
SEQEND
  0
POLYLINE
  8
0
 66
1
 70
1
  0
VERTEX
  8
0
 10
95.445744
 20
482.719207
 42
0.087612
  0
VERTEX
  8
0
 10
95.254680
 20
481.734396
 42
0.001513
  0
VERTEX
  8
0
 10
95.178787
 20
476.246237
 42
0.003790
  0
VERTEX
  8
0
 10
95.158144
 20
469.839455
 42
0.002509
  0
VERTEX
  8
0
 10
95.227129
 20
462.482127
 42
0.002103
  0
VERTEX
  8
0
 10
95.435733
 20
451.267603
 42
0.020419
  0
VERTEX
  8
0
 10
95.737938
 20
446.525181
 42
0.052027
  0
VERTEX
  8
0
 10
96.257840
 20
444.067040
 42
0.273687
  0
VERTEX
  8
0
 10
97.250000
 20
443.189596
 42
0.370927
  0
VERTEX
  8
0
 10
98.237414
 20
443.755692
 42
0.063480
  0
VERTEX
  8
0
 10
98.732821
 20
446.045699
 42
0.019898
  0
VERTEX
  8
0
 10
98.958132
 20
450.890731
 42
0.001670
  0
VERTEX
  8
0
 10
99.000000
 20
463.426676
 42
0.002060
  0
VERTEX
  8
0
 10
98.952131
 20
475.045647
 42
0.016516
  0
VERTEX
  8
0
 10
98.731391
 20
480.391386
 42
0.032511
  0
VERTEX
  8
0
 10
98.322949
 20
483.304530
 42
0.355566
  0
VERTEX
  8
0
 10
97.468615
 20
484.000000
 42
0.076493
  0
VERTEX
  8
0
 10
96.846456
 20
483.904258
 42
0.064857
  0
VERTEX
  8
0
 10
96.242701
 20
483.623767
 42
0.066802
  0
VERTEX
  8
0
 10
95.747973
 20
483.208880
 42
0.093555
  0
SEQEND
  0
POLYLINE
  8
0
 66
1
 70
1
  0
VERTEX
  8
0
 10
272.000000
 20
463.500000
 42
0.002122
  0
VERTEX
  8
0
 10
272.048580
 20
452.053506
 42
0.016140
  0
VERTEX
  8
0
 10
272.268293
 20
446.666667
 42
0.029936
  0
VERTEX
  8
0
 10
272.666708
 20
443.686378
 42
0.358821
  0
VERTEX
  8
0
 10
273.500000
 20
443.000000
 42
0.358821
  0
VERTEX
  8
0
 10
274.333292
 20
443.686378
 42
0.029936
  0
VERTEX
  8
0
 10
274.731707
 20
446.666667
 42
0.016140
  0
VERTEX
  8
0
 10
274.951420
 20
452.053506
 42
0.002122
  0
VERTEX
  8
0
 10
275.000000
 20
463.500000
 42
0.002122
  0
VERTEX
  8
0
 10
274.951420
 20
474.946494
 42
0.016140
  0
VERTEX
  8
0
 10
274.731707
 20
480.333333
 42
0.029936
  0
VERTEX
  8
0
 10
274.333292
 20
483.313622
 42
0.358821
  0
VERTEX
  8
0
 10
273.500000
 20
484.000000
 42
0.358821
  0
VERTEX
  8
0
 10
272.666708
 20
483.313622
 42
0.029936
  0
VERTEX
  8
0
 10
272.268293
 20
480.333333
 42
0.016140
  0
VERTEX
  8
0
 10
272.048580
 20
474.946494
 42
0.002122
  0
SEQEND
  0
POLYLINE
  8
0
 66
1
 70
1
  0
VERTEX
  8
0
 10
184.000000
 20
454.500000
 42
0.011522
  0
VERTEX
  8
0
 10
184.068623
 20
451.522473
 42
0.021620
  0
VERTEX
  8
0
 10
184.283333
 20
449.125000
 42
0.018508
  0
VERTEX
  8
0
 10
184.590162
 20
447.332853
 42
0.354925
  0
VERTEX
  8
0
 10
185.000000
 20
447.000000
 42
0.354925
  0
VERTEX
  8
0
 10
185.409838
 20
447.332853
 42
0.018508
  0
VERTEX
  8
0
 10
185.716667
 20
449.125000
 42
0.021620
  0
VERTEX
  8
0
 10
185.931377
 20
451.522473
 42
0.011522
  0
VERTEX
  8
0
 10
186.000000
 20
454.500000
 42
0.011522
  0
VERTEX
  8
0
 10
185.931377
 20
457.477527
 42
0.021620
  0
VERTEX
  8
0
 10
185.716667
 20
459.875000
 42
0.018508
  0
VERTEX
  8
0
 10
185.409838
 20
461.667147
 42
0.354925
  0
VERTEX
  8
0
 10
185.000000
 20
462.000000
 42
0.354925
  0
VERTEX
  8
0
 10
184.590162
 20
461.667147
 42
0.018508
  0
VERTEX
  8
0
 10
184.283333
 20
459.875000
 42
0.021620
  0
VERTEX
  8
0
 10
184.068623
 20
457.477527
 42
0.011522
  0
SEQEND
  0
POLYLINE
  8
0
 66
1
 70
1
  0
VERTEX
  8
0
 10
95.229295
 20
415.750000
 42
0.002218
  0
VERTEX
  8
0
 10
95.429038
 20
404.532142
 42
0.016246
  0
VERTEX
  8
0
 10
95.722798
 20
399.170118
 42
0.029340
  0
VERTEX
  8
0
 10
96.161813
 20
396.182152
 42
0.355496
  0
VERTEX
  8
0
 10
97.000000
 20
395.500000
 42
0.355496
  0
VERTEX
  8
0
 10
97.838187
 20
396.182152
 42
0.029340
  0
VERTEX
  8
0
 10
98.277202
 20
399.170118
 42
0.016246
  0
VERTEX
  8
0
 10
98.570962
 20
404.532142
 42
0.002218
  0
VERTEX
  8
0
 10
98.770705
 20
415.750000
 42
0.001443
  0
VERTEX
  8
0
 10
98.908607
 20
428.907364
 42
0.023708
  0
VERTEX
  8
0
 10
98.733500
 20
433.303249
 42
0.096441
  0
VERTEX
  8
0
 10
98.164098
 20
435.287084
 42
0.281879
  0
VERTEX
  8
0
 10
97.000000
 20
436.000000
 42
0.281879
  0
VERTEX
  8
0
 10
95.835902
 20
435.287084
 42
0.096441
  0
VERTEX
  8
0
 10
95.266500
 20
433.303249
 42
0.023708
  0
VERTEX
  8
0
 10
95.091393
 20
428.907364
 42
0.001443
  0
SEQEND
  0
POLYLINE
  8
0
 66
1
 70
1
  0
VERTEX
  8
0
 10
272.000000
 20
415.500000
 42
0.002122
  0
VERTEX
  8
0
 10
272.048580
 20
404.053506
 42
0.016140
  0
VERTEX
  8
0
 10
272.268293
 20
398.666667
 42
0.029936
  0
VERTEX
  8
0
 10
272.666708
 20
395.686378
 42
0.358821
  0
VERTEX
  8
0
 10
273.500000
 20
395.000000
 42
0.358821
  0
VERTEX
  8
0
 10
274.333292
 20
395.686378
 42
0.029936
  0
VERTEX
  8
0
 10
274.731707
 20
398.666667
 42
0.016140
  0
VERTEX
  8
0
 10
274.951420
 20
404.053506
 42
0.002122
  0
VERTEX
  8
0
 10
275.000000
 20
415.500000
 42
0.002122
  0
VERTEX
  8
0
 10
274.951420
 20
426.946494
 42
0.016140
  0
VERTEX
  8
0
 10
274.731707
 20
432.333333
 42
0.029936
  0
VERTEX
  8
0
 10
274.333292
 20
435.313622
 42
0.358821
  0
VERTEX
  8
0
 10
273.500000
 20
436.000000
 42
0.358821
  0
VERTEX
  8
0
 10
272.666708
 20
435.313622
 42
0.029936
  0
VERTEX
  8
0
 10
272.268293
 20
432.333333
 42
0.016140
  0
VERTEX
  8
0
 10
272.048580
 20
426.946494
 42
0.002122
  0
SEQEND
  0
POLYLINE
  8
0
 66
1
 70
1
  0
VERTEX
  8
0
 10
184.000000
 20
417.500000
 42
0.004191
  0
VERTEX
  8
0
 10
184.062020
 20
410.100683
 42
0.010080
  0
VERTEX
  8
0
 10
184.264286
 20
404.625000
 42
0.005057
  0
VERTEX
  8
0
 10
184.547335
 20
400.418956
 42
0.391747
  0
VERTEX
  8
0
 10
185.000000
 20
400.000000
 42
0.391747
  0
VERTEX
  8
0
 10
185.452665
 20
400.418956
 42
0.005057
  0
VERTEX
  8
0
 10
185.735714
 20
404.625000
 42
0.010080
  0
VERTEX
  8
0
 10
185.937980
 20
410.100683
 42
0.004191
  0
VERTEX
  8
0
 10
186.000000
 20
417.500000
 42
0.004191
  0
VERTEX
  8
0
 10
185.937980
 20
424.899317
 42
0.010080
  0
VERTEX
  8
0
 10
185.735714
 20
430.375000
 42
0.005057
  0
VERTEX
  8
0
 10
185.452665
 20
434.581044
 42
0.391747
  0
VERTEX
  8
0
 10
185.000000
 20
435.000000
 42
0.391747
  0
VERTEX
  8
0
 10
184.547335
 20
434.581044
 42
0.005057
  0
VERTEX
  8
0
 10
184.264286
 20
430.375000
 42
0.010080
  0
VERTEX
  8
0
 10
184.062020
 20
424.899317
 42
0.004191
  0
SEQEND
  0
POLYLINE
  8
0
 66
1
 70
1
  0
VERTEX
  8
0
 10
95.687500
 20
388.354167
 42
0.188687
  0
VERTEX
  8
0
 10
95.408925
 20
387.717423
 42
0.001483
  0
VERTEX
  8
0
 10
95.201953
 20
382.042578
 42
0.005131
  0
VERTEX
  8
0
 10
95.049615
 20
375.485577
 42
0.003242
  0
VERTEX
  8
0
 10
95.000000
 20
367.833333
 42
0.001544
  0
VERTEX
  8
0
 10
95.039381
 20
355.083286
 42
0.023844
  0
VERTEX
  8
0
 10
95.275471
 20
350.703763
 42
0.092867
  0
VERTEX
  8
0
 10
95.863840
 20
348.708370
 42
0.281840
  0
VERTEX
  8
0
 10
97.020705
 20
348.000000
 42
0.284657
  0
VERTEX
  8
0
 10
98.171479
 20
348.712918
 42
0.094014
  0
VERTEX
  8
0
 10
98.733320
 20
350.711602
 42
0.023531
  0
VERTEX
  8
0
 10
98.907540
 20
355.119632
 42
0.001468
  0
VERTEX
  8
0
 10
98.770705
 20
368.167397
 42
0.003846
  0
VERTEX
  8
0
 10
98.509119
 20
380.555278
 42
0.030699
  0
VERTEX
  8
0
 10
97.994486
 20
386.246298
 42
0.140972
  0
VERTEX
  8
0
 10
97.046593
 20
388.304103
 42
0.435950
  0
SEQEND
  0
POLYLINE
  8
0
 66
1
 70
1
  0
VERTEX
  8
0
 10
184.666667
 20
388.333333
 42
0.195250
  0
VERTEX
  8
0
 10
183.986565
 20
386.723617
 42
0.009338
  0
VERTEX
  8
0
 10
184.013844
 20
380.761632
 42
0.007285
  0
VERTEX
  8
0
 10
184.242495
 20
374.718824
 42
0.398951
  0
VERTEX
  8
0
 10
185.000000
 20
374.000000
 42
0.354925
  0
VERTEX
  8
0
 10
185.409838
 20
374.332853
 42
0.018508
  0
VERTEX
  8
0
 10
185.716667
 20
376.125000
 42
0.021620
  0
VERTEX
  8
0
 10
185.931377
 20
378.522473
 42
0.011522
  0
VERTEX
  8
0
 10
186.000000
 20
381.500000
 42
0.002965
  0
VERTEX
  8
0
 10
185.970421
 20
386.487275
 42
0.045241
  0
VERTEX
  8
0
 10
185.794427
 20
388.201960
 42
0.342175
  0
VERTEX
  8
0
 10
185.348283
 20
388.592252
 42
0.214384
  0
SEQEND
  0
POLYLINE
  8
0
 66
1
 70
1
  0
VERTEX
  8
0
 10
272.229712
 20
368.250000
 42
0.003565
  0
VERTEX
  8
0
 10
272.405985
 20
359.505710
 42
0.008464
  0
VERTEX
  8
0
 10
272.693596
 20
353.005072
 42
0.003559
  0
VERTEX
  8
0
 10
273.040848
 20
347.925784
 42
0.392304
  0
VERTEX
  8
0
 10
273.500000
 20
347.500000
 42
0.392304
  0
VERTEX
  8
0
 10
273.959152
 20
347.925784
 42
0.003559
  0
VERTEX
  8
0
 10
274.306404
 20
353.005072
 42
0.008464
  0
VERTEX
  8
0
 10
274.594015
 20
359.505710
 42
0.003565
  0
VERTEX
  8
0
 10
274.770288
 20
368.250000
 42
0.001965
  0
VERTEX
  8
0
 10
274.878021
 20
380.093695
 42
0.016579
  0
VERTEX
  8
0
 10
274.728725
 20
385.426616
 42
0.034151
  0
VERTEX
  8
0
 10
274.354844
 20
388.299408
 42
0.357427
  0
VERTEX
  8
0
 10
273.500000
 20
389.000000
 42
0.357427
  0
VERTEX
  8
0
 10
272.645156
 20
388.299408
 42
0.034151
  0
VERTEX
  8
0
 10
272.271275
 20
385.426616
 42
0.016579
  0
VERTEX
  8
0
 10
272.121979
 20
380.093695
 42
0.001965
  0
SEQEND
  0
POLYLINE
  8
0
 66
1
 70
1
  0
VERTEX
  8
0
 10
184.000000
 20
344.500000
 42
0.004191
  0
VERTEX
  8
0
 10
184.062020
 20
337.100683
 42
0.010080
  0
VERTEX
  8
0
 10
184.264286
 20
331.625000
 42
0.005057
  0
VERTEX
  8
0
 10
184.547335
 20
327.418956
 42
0.391747
  0
VERTEX
  8
0
 10
185.000000
 20
327.000000
 42
0.391747
  0
VERTEX
  8
0
 10
185.452665
 20
327.418956
 42
0.005057
  0
VERTEX
  8
0
 10
185.735714
 20
331.625000
 42
0.010080
  0
VERTEX
  8
0
 10
185.937980
 20
337.100683
 42
0.004191
  0
VERTEX
  8
0
 10
186.000000
 20
344.500000
 42
0.004191
  0
VERTEX
  8
0
 10
185.937980
 20
351.899317
 42
0.010080
  0
VERTEX
  8
0
 10
185.735714
 20
357.375000
 42
0.005057
  0
VERTEX
  8
0
 10
185.452665
 20
361.581044
 42
0.391747
  0
VERTEX
  8
0
 10
185.000000
 20
362.000000
 42
0.391747
  0
VERTEX
  8
0
 10
184.547335
 20
361.581044
 42
0.005057
  0
VERTEX
  8
0
 10
184.264286
 20
357.375000
 42
0.010080
  0
VERTEX
  8
0
 10
184.062020
 20
351.899317
 42
0.004191
  0
SEQEND
  0
POLYLINE
  8
0
 66
1
 70
1
  0
VERTEX
  8
0
 10
272.639480
 20
341.306147
 42
0.189721
  0
VERTEX
  8
0
 10
272.379978
 20
340.709756
 42
0.001236
  0
VERTEX
  8
0
 10
272.187847
 20
334.881597
 42
0.004679
  0
VERTEX
  8
0
 10
272.046132
 20
328.173985
 42
0.002942
  0
VERTEX
  8
0
 10
272.000000
 20
320.333333
 42
0.002142
  0
VERTEX
  8
0
 10
272.048630
 20
308.983679
 42
0.016268
  0
VERTEX
  8
0
 10
272.268443
 20
303.638889
 42
0.030316
  0
VERTEX
  8
0
 10
272.667509
 20
300.684242
 42
0.358224
  0
VERTEX
  8
0
 10
273.500000
 20
300.000000
 42
0.358611
  0
VERTEX
  8
0
 10
274.333009
 20
300.685625
 42
0.030070
  0
VERTEX
  8
0
 10
274.731655
 20
303.656831
 42
0.016185
  0
VERTEX
  8
0
 10
274.951402
 20
309.028780
 42
0.002129
  0
VERTEX
  8
0
 10
275.000000
 20
320.440983
 42
0.003688
  0
VERTEX
  8
0
 10
274.910873
 20
332.525541
 42
0.024481
  0
VERTEX
  8
0
 10
274.527142
 20
338.541257
 42
0.084631
  0
VERTEX
  8
0
 10
273.783502
 20
341.112695
 42
0.516114
  0
SEQEND
  0
POLYLINE
  8
0
 66
1
 70
1
  0
VERTEX
  8
0
 10
95.229295
 20
320.750000
 42
0.002218
  0
VERTEX
  8
0
 10
95.429038
 20
309.532142
 42
0.016246
  0
VERTEX
  8
0
 10
95.722798
 20
304.170118
 42
0.029340
  0
VERTEX
  8
0
 10
96.161813
 20
301.182152
 42
0.355496
  0
VERTEX
  8
0
 10
97.000000
 20
300.500000
 42
0.355496
  0
VERTEX
  8
0
 10
97.838187
 20
301.182152
 42
0.029340
  0
VERTEX
  8
0
 10
98.277202
 20
304.170118
 42
0.016246
  0
VERTEX
  8
0
 10
98.570962
 20
309.532142
 42
0.002218
  0
VERTEX
  8
0
 10
98.770705
 20
320.750000
 42
0.001443
  0
VERTEX
  8
0
 10
98.908607
 20
333.907364
 42
0.023708
  0
VERTEX
  8
0
 10
98.733500
 20
338.303249
 42
0.096441
  0
VERTEX
  8
0
 10
98.164098
 20
340.287084
 42
0.281879
  0
VERTEX
  8
0
 10
97.000000
 20
341.000000
 42
0.281879
  0
VERTEX
  8
0
 10
95.835902
 20
340.287084
 42
0.096441
  0
VERTEX
  8
0
 10
95.266500
 20
338.303249
 42
0.023708
  0
VERTEX
  8
0
 10
95.091393
 20
333.907364
 42
0.001443
  0
SEQEND
  0
POLYLINE
  8
0
 66
1
 70
1
  0
VERTEX
  8
0
 10
184.666667
 20
315.333333
 42
0.195250
  0
VERTEX
  8
0
 10
183.986565
 20
313.723617
 42
0.009338
  0
VERTEX
  8
0
 10
184.013844
 20
307.761632
 42
0.007285
  0
VERTEX
  8
0
 10
184.242495
 20
301.718824
 42
0.398951
  0
VERTEX
  8
0
 10
185.000000
 20
301.000000
 42
0.354925
  0
VERTEX
  8
0
 10
185.409838
 20
301.332853
 42
0.018508
  0
VERTEX
  8
0
 10
185.716667
 20
303.125000
 42
0.021620
  0
VERTEX
  8
0
 10
185.931377
 20
305.522473
 42
0.011522
  0
VERTEX
  8
0
 10
186.000000
 20
308.500000
 42
0.002965
  0
VERTEX
  8
0
 10
185.970421
 20
313.487275
 42
0.045241
  0
VERTEX
  8
0
 10
185.794427
 20
315.201960
 42
0.342175
  0
VERTEX
  8
0
 10
185.348283
 20
315.592252
 42
0.214384
  0
SEQEND
  0
POLYLINE
  8
0
 66
1
 70
1
  0
VERTEX
  8
0
 10
95.477655
 20
292.802365
 42
0.087057
  0
VERTEX
  8
0
 10
95.274355
 20
291.760629
 42
0.001684
  0
VERTEX
  8
0
 10
95.188161
 20
286.266869
 42
0.004007
  0
VERTEX
  8
0
 10
95.160474
 20
279.837315
 42
0.002669
  0
VERTEX
  8
0
 10
95.227129
 20
272.469207
 42
0.002400
  0
VERTEX
  8
0
 10
95.428080
 20
261.995920
 42
0.017303
  0
VERTEX
  8
0
 10
95.723636
 20
256.957013
 42
0.032318
  0
VERTEX
  8
0
 10
96.167934
 20
254.164901
 42
0.350472
  0
VERTEX
  8
0
 10
97.000000
 20
253.500000
 42
0.356687
  0
VERTEX
  8
0
 10
97.830460
 20
254.178788
 42
0.031297
  0
VERTEX
  8
0
 10
98.231172
 20
257.069444
 42
0.016600
  0
VERTEX
  8
0
 10
98.451240
 20
262.309107
 42
0.002195
  0
VERTEX
  8
0
 10
98.500000
 20
273.416667
 42
0.002903
  0
VERTEX
  8
0
 10
98.442910
 20
283.248633
 42
0.012441
  0
VERTEX
  8
0
 10
98.229088
 20
289.105294
 42
0.012182
  0
VERTEX
  8
0
 10
97.898876
 20
292.947365
 42
0.292690
  0
VERTEX
  8
0
 10
97.250526
 20
293.749825
 42
0.108611
  0
VERTEX
  8
0
 10
96.733720
 20
293.804487
 42
0.095239
  0
VERTEX
  8
0
 10
96.214337
 20
293.643311
 42
0.090855
  0
VERTEX
  8
0
 10
95.772248
 20
293.291611
 42
0.088017
  0
SEQEND
  0
POLYLINE
  8
0
 66
1
 70
1
  0
VERTEX
  8
0
 10
272.000000
 20
273.500000
 42
0.002122
  0
VERTEX
  8
0
 10
272.048580
 20
262.053506
 42
0.016140
  0
VERTEX
  8
0
 10
272.268293
 20
256.666667
 42
0.029936
  0
VERTEX
  8
0
 10
272.666708
 20
253.686378
 42
0.358821
  0
VERTEX
  8
0
 10
273.500000
 20
253.000000
 42
0.358821
  0
VERTEX
  8
0
 10
274.333292
 20
253.686378
 42
0.029936
  0
VERTEX
  8
0
 10
274.731707
 20
256.666667
 42
0.016140
  0
VERTEX
  8
0
 10
274.951420
 20
262.053506
 42
0.002122
  0
VERTEX
  8
0
 10
275.000000
 20
273.500000
 42
0.002122
  0
VERTEX
  8
0
 10
274.951420
 20
284.946494
 42
0.016140
  0
VERTEX
  8
0
 10
274.731707
 20
290.333333
 42
0.029936
  0
VERTEX
  8
0
 10
274.333292
 20
293.313622
 42
0.358821
  0
VERTEX
  8
0
 10
273.500000
 20
294.000000
 42
0.358821
  0
VERTEX
  8
0
 10
272.666708
 20
293.313622
 42
0.029936
  0
VERTEX
  8
0
 10
272.268293
 20
290.333333
 42
0.016140
  0
VERTEX
  8
0
 10
272.048580
 20
284.946494
 42
0.002122
  0
SEQEND
  0
POLYLINE
  8
0
 66
1
 70
1
  0
VERTEX
  8
0
 10
184.000000
 20
271.500000
 42
0.004191
  0
VERTEX
  8
0
 10
184.062020
 20
264.100683
 42
0.010080
  0
VERTEX
  8
0
 10
184.264286
 20
258.625000
 42
0.005057
  0
VERTEX
  8
0
 10
184.547335
 20
254.418956
 42
0.391747
  0
VERTEX
  8
0
 10
185.000000
 20
254.000000
 42
0.391747
  0
VERTEX
  8
0
 10
185.452665
 20
254.418956
 42
0.005057
  0
VERTEX
  8
0
 10
185.735714
 20
258.625000
 42
0.010080
  0
VERTEX
  8
0
 10
185.937980
 20
264.100683
 42
0.004191
  0
VERTEX
  8
0
 10
186.000000
 20
271.500000
 42
0.004191
  0
VERTEX
  8
0
 10
185.937980
 20
278.899317
 42
0.010080
  0
VERTEX
  8
0
 10
185.735714
 20
284.375000
 42
0.005057
  0
VERTEX
  8
0
 10
185.452665
 20
288.581044
 42
0.391747
  0
VERTEX
  8
0
 10
185.000000
 20
289.000000
 42
0.391747
  0
VERTEX
  8
0
 10
184.547335
 20
288.581044
 42
0.005057
  0
VERTEX
  8
0
 10
184.264286
 20
284.375000
 42
0.010080
  0
VERTEX
  8
0
 10
184.062020
 20
278.899317
 42
0.004191
  0
SEQEND
  0
POLYLINE
  8
0
 66
1
 70
1
  0
VERTEX
  8
0
 10
95.478161
 20
245.803684
 42
0.087210
  0
VERTEX
  8
0
 10
95.274786
 20
244.759869
 42
0.001606
  0
VERTEX
  8
0
 10
95.188877
 20
239.121859
 42
0.003908
  0
VERTEX
  8
0
 10
95.161130
 20
232.530740
 42
0.002596
  0
VERTEX
  8
0
 10
95.227635
 20
224.970526
 42
0.002326
  0
VERTEX
  8
0
 10
95.428303
 20
214.205922
 42
0.016873
  0
VERTEX
  8
0
 10
95.723231
 20
209.040482
 42
0.031103
  0
VERTEX
  8
0
 10
96.165481
 20
206.171845
 42
0.352513
  0
VERTEX
  8
0
 10
97.000000
 20
205.500000
 42
0.358524
  0
VERTEX
  8
0
 10
97.832892
 20
206.185313
 42
0.030126
  0
VERTEX
  8
0
 10
98.231633
 20
209.152778
 42
0.016204
  0
VERTEX
  8
0
 10
98.451395
 20
214.518593
 42
0.002132
  0
VERTEX
  8
0
 10
98.500000
 20
225.916667
 42
0.002819
  0
VERTEX
  8
0
 10
98.443103
 20
236.008607
 42
0.012158
  0
VERTEX
  8
0
 10
98.229600
 20
242.005081
 42
0.011729
  0
VERTEX
  8
0
 10
97.900615
 20
245.942506
 42
0.293581
  0
VERTEX
  8
0
 10
97.250526
 20
246.749825
 42
0.108506
  0
VERTEX
  8
0
 10
96.733758
 20
246.804591
 42
0.095227
  0
VERTEX
  8
0
 10
96.214486
 20
246.643699
 42
0.090883
  0
VERTEX
  8
0
 10
95.772564
 20
246.292424
 42
0.088104
  0
SEQEND
  0
POLYLINE
  8
0
 66
1
 70
1
  0
VERTEX
  8
0
 10
272.446250
 20
245.720526
 42
0.096492
  0
VERTEX
  8
0
 10
271.845257
 20
242.301861
 42
0.001997
  0
VERTEX
  8
0
 10
272.234421
 20
224.902170
 42
0.000829
  0
VERTEX
  8
0
 10
272.744907
 20
206.685042
 42
0.336292
  0
VERTEX
  8
0
 10
273.500000
 20
205.748407
 42
0.463506
  0
VERTEX
  8
0
 10
273.965066
 20
206.083646
 42
0.004070
  0
VERTEX
  8
0
 10
274.309205
 20
210.990365
 42
0.008762
  0
VERTEX
  8
0
 10
274.594039
 20
217.407463
 42
0.003452
  0
VERTEX
  8
0
 10
274.770288
 20
226.250000
 42
0.003160
  0
VERTEX
  8
0
 10
274.832595
 20
235.541901
 42
0.009506
  0
VERTEX
  8
0
 10
274.714491
 20
241.881636
 42
0.005288
  0
VERTEX
  8
0
 10
274.490333
 20
246.527216
 42
0.397097
  0
VERTEX
  8
0
 10
273.988904
 20
247.000000
 42
0.107100
  0
VERTEX
  8
0
 10
273.550197
 20
246.904939
 42
0.066507
  0
VERTEX
  8
0
 10
273.101934
 20
246.624155
 42
0.062096
  0
VERTEX
  8
0
 10
272.712453
 20
246.209708
 42
0.066074
  0
SEQEND
  0
POLYLINE
  8
0
 66
1
 70
1
  0
VERTEX
  8
0
 10
184.000000
 20
235.500000
 42
0.011522
  0
VERTEX
  8
0
 10
184.068623
 20
232.522473
 42
0.021620
  0
VERTEX
  8
0
 10
184.283333
 20
230.125000
 42
0.018508
  0
VERTEX
  8
0
 10
184.590162
 20
228.332853
 42
0.354925
  0
VERTEX
  8
0
 10
185.000000
 20
228.000000
 42
0.354925
  0
VERTEX
  8
0
 10
185.409838
 20
228.332853
 42
0.018508
  0
VERTEX
  8
0
 10
185.716667
 20
230.125000
 42
0.021620
  0
VERTEX
  8
0
 10
185.931377
 20
232.522473
 42
0.011522
  0
VERTEX
  8
0
 10
186.000000
 20
235.500000
 42
0.011522
  0
VERTEX
  8
0
 10
185.931377
 20
238.477527
 42
0.021620
  0
VERTEX
  8
0
 10
185.716667
 20
240.875000
 42
0.018508
  0
VERTEX
  8
0
 10
185.409838
 20
242.667147
 42
0.354925
  0
VERTEX
  8
0
 10
185.000000
 20
243.000000
 42
0.354925
  0
VERTEX
  8
0
 10
184.590162
 20
242.667147
 42
0.018508
  0
VERTEX
  8
0
 10
184.283333
 20
240.875000
 42
0.021620
  0
VERTEX
  8
0
 10
184.068623
 20
238.477527
 42
0.011522
  0
SEQEND
  0
POLYLINE
  8
0
 66
1
 70
1
  0
VERTEX
  8
0
 10
184.000000
 20
198.500000
 42
0.004191
  0
VERTEX
  8
0
 10
184.062020
 20
191.100683
 42
0.010080
  0
VERTEX
  8
0
 10
184.264286
 20
185.625000
 42
0.005057
  0
VERTEX
  8
0
 10
184.547335
 20
181.418956
 42
0.391747
  0
VERTEX
  8
0
 10
185.000000
 20
181.000000
 42
0.391747
  0
VERTEX
  8
0
 10
185.452665
 20
181.418956
 42
0.005057
  0
VERTEX
  8
0
 10
185.735714
 20
185.625000
 42
0.010080
  0
VERTEX
  8
0
 10
185.937980
 20
191.100683
 42
0.004191
  0
VERTEX
  8
0
 10
186.000000
 20
198.500000
 42
0.004191
  0
VERTEX
  8
0
 10
185.937980
 20
205.899317
 42
0.010080
  0
VERTEX
  8
0
 10
185.735714
 20
211.375000
 42
0.005057
  0
VERTEX
  8
0
 10
185.452665
 20
215.581044
 42
0.391747
  0
VERTEX
  8
0
 10
185.000000
 20
216.000000
 42
0.391747
  0
VERTEX
  8
0
 10
184.547335
 20
215.581044
 42
0.005057
  0
VERTEX
  8
0
 10
184.264286
 20
211.375000
 42
0.010080
  0
VERTEX
  8
0
 10
184.062020
 20
205.899317
 42
0.004191
  0
SEQEND
  0
POLYLINE
  8
0
 66
1
 70
1
  0
VERTEX
  8
0
 10
95.445744
 20
197.719207
 42
0.087612
  0
VERTEX
  8
0
 10
95.254680
 20
196.734396
 42
0.001513
  0
VERTEX
  8
0
 10
95.178787
 20
191.246237
 42
0.003790
  0
VERTEX
  8
0
 10
95.158144
 20
184.839455
 42
0.002509
  0
VERTEX
  8
0
 10
95.227129
 20
177.482127
 42
0.002103
  0
VERTEX
  8
0
 10
95.435733
 20
166.267603
 42
0.020419
  0
VERTEX
  8
0
 10
95.737938
 20
161.525181
 42
0.052027
  0
VERTEX
  8
0
 10
96.257840
 20
159.067040
 42
0.273687
  0
VERTEX
  8
0
 10
97.250000
 20
158.189596
 42
0.370927
  0
VERTEX
  8
0
 10
98.237414
 20
158.755692
 42
0.063480
  0
VERTEX
  8
0
 10
98.732821
 20
161.045699
 42
0.019898
  0
VERTEX
  8
0
 10
98.958132
 20
165.890731
 42
0.001670
  0
VERTEX
  8
0
 10
99.000000
 20
178.426676
 42
0.002060
  0
VERTEX
  8
0
 10
98.952131
 20
190.045647
 42
0.016516
  0
VERTEX
  8
0
 10
98.731391
 20
195.391386
 42
0.032511
  0
VERTEX
  8
0
 10
98.322949
 20
198.304530
 42
0.355566
  0
VERTEX
  8
0
 10
97.468615
 20
199.000000
 42
0.076493
  0
VERTEX
  8
0
 10
96.846456
 20
198.904258
 42
0.064857
  0
VERTEX
  8
0
 10
96.242701
 20
198.623767
 42
0.066802
  0
VERTEX
  8
0
 10
95.747973
 20
198.208880
 42
0.093555
  0
SEQEND
  0
POLYLINE
  8
0
 66
1
 70
1
  0
VERTEX
  8
0
 10
272.000000
 20
178.500000
 42
0.002122
  0
VERTEX
  8
0
 10
272.048580
 20
167.053506
 42
0.016140
  0
VERTEX
  8
0
 10
272.268293
 20
161.666667
 42
0.029936
  0
VERTEX
  8
0
 10
272.666708
 20
158.686378
 42
0.358821
  0
VERTEX
  8
0
 10
273.500000
 20
158.000000
 42
0.358821
  0
VERTEX
  8
0
 10
274.333292
 20
158.686378
 42
0.029936
  0
VERTEX
  8
0
 10
274.731707
 20
161.666667
 42
0.016140
  0
VERTEX
  8
0
 10
274.951420
 20
167.053506
 42
0.002122
  0
VERTEX
  8
0
 10
275.000000
 20
178.500000
 42
0.002122
  0
VERTEX
  8
0
 10
274.951420
 20
189.946494
 42
0.016140
  0
VERTEX
  8
0
 10
274.731707
 20
195.333333
 42
0.029936
  0
VERTEX
  8
0
 10
274.333292
 20
198.313622
 42
0.358821
  0
VERTEX
  8
0
 10
273.500000
 20
199.000000
 42
0.358821
  0
VERTEX
  8
0
 10
272.666708
 20
198.313622
 42
0.029936
  0
VERTEX
  8
0
 10
272.268293
 20
195.333333
 42
0.016140
  0
VERTEX
  8
0
 10
272.048580
 20
189.946494
 42
0.002122
  0
SEQEND
  0
POLYLINE
  8
0
 66
1
 70
1
  0
VERTEX
  8
0
 10
184.666667
 20
169.333333
 42
0.195250
  0
VERTEX
  8
0
 10
183.986565
 20
167.723617
 42
0.009338
  0
VERTEX
  8
0
 10
184.013844
 20
161.761632
 42
0.007285
  0
VERTEX
  8
0
 10
184.242495
 20
155.718824
 42
0.398951
  0
VERTEX
  8
0
 10
185.000000
 20
155.000000
 42
0.354925
  0
VERTEX
  8
0
 10
185.409838
 20
155.332853
 42
0.018508
  0
VERTEX
  8
0
 10
185.716667
 20
157.125000
 42
0.021620
  0
VERTEX
  8
0
 10
185.931377
 20
159.522473
 42
0.011522
  0
VERTEX
  8
0
 10
186.000000
 20
162.500000
 42
0.002965
  0
VERTEX
  8
0
 10
185.970421
 20
167.487275
 42
0.045241
  0
VERTEX
  8
0
 10
185.794427
 20
169.201960
 42
0.342175
  0
VERTEX
  8
0
 10
185.348283
 20
169.592252
 42
0.214384
  0
SEQEND
  0
POLYLINE
  8
0
 66
1
 70
1
  0
VERTEX
  8
0
 10
95.478161
 20
150.803684
 42
0.087210
  0
VERTEX
  8
0
 10
95.274786
 20
149.759869
 42
0.001606
  0
VERTEX
  8
0
 10
95.188877
 20
144.121859
 42
0.003908
  0
VERTEX
  8
0
 10
95.161130
 20
137.530740
 42
0.002596
  0
VERTEX
  8
0
 10
95.227635
 20
129.970526
 42
0.002326
  0
VERTEX
  8
0
 10
95.428303
 20
119.205922
 42
0.016873
  0
VERTEX
  8
0
 10
95.723231
 20
114.040482
 42
0.031103
  0
VERTEX
  8
0
 10
96.165481
 20
111.171845
 42
0.352513
  0
VERTEX
  8
0
 10
97.000000
 20
110.500000
 42
0.358524
  0
VERTEX
  8
0
 10
97.832892
 20
111.185313
 42
0.030126
  0
VERTEX
  8
0
 10
98.231633
 20
114.152778
 42
0.016204
  0
VERTEX
  8
0
 10
98.451395
 20
119.518593
 42
0.002132
  0
VERTEX
  8
0
 10
98.500000
 20
130.916667
 42
0.002819
  0
VERTEX
  8
0
 10
98.443103
 20
141.008607
 42
0.012158
  0
VERTEX
  8
0
 10
98.229600
 20
147.005081
 42
0.011729
  0
VERTEX
  8
0
 10
97.900615
 20
150.942506
 42
0.293581
  0
VERTEX
  8
0
 10
97.250526
 20
151.749825
 42
0.108506
  0
VERTEX
  8
0
 10
96.733758
 20
151.804591
 42
0.095227
  0
VERTEX
  8
0
 10
96.214486
 20
151.643699
 42
0.090883
  0
VERTEX
  8
0
 10
95.772564
 20
151.292424
 42
0.088104
  0
SEQEND
  0
POLYLINE
  8
0
 66
1
 70
1
  0
VERTEX
  8
0
 10
272.510418
 20
150.887744
 42
0.095896
  0
VERTEX
  8
0
 10
271.880547
 20
147.329462
 42
0.002161
  0
VERTEX
  8
0
 10
272.233949
 20
129.946569
 42
0.000897
  0
VERTEX
  8
0
 10
272.715955
 20
111.722387
 42
0.336692
  0
VERTEX
  8
0
 10
273.500000
 20
110.748407
 42
0.481587
  0
VERTEX
  8
0
 10
274.480963
 20
111.500567
 42
0.001345
  0
VERTEX
  8
0
 10
274.790233
 20
130.416580
 42
0.001797
  0
VERTEX
  8
0
 10
274.978232
 20
149.094868
 42
0.200595
  0
VERTEX
  8
0
 10
274.054517
 20
151.345483
 42
0.079587
  0
VERTEX
  8
0
 10
273.590533
 20
151.681342
 42
0.191260
  0
VERTEX
  8
0
 10
273.175228
 20
151.718722
 42
0.169802
  0
VERTEX
  8
0
 10
272.812991
 20
151.457601
 42
0.060927
  0
SEQEND
  0
POLYLINE
  8
0
 66
1
 70
1
  0
VERTEX
  8
0
 10
184.000000
 20
125.500000
 42
0.004191
  0
VERTEX
  8
0
 10
184.062020
 20
118.100683
 42
0.010080
  0
VERTEX
  8
0
 10
184.264286
 20
112.625000
 42
0.005057
  0
VERTEX
  8
0
 10
184.547335
 20
108.418956
 42
0.391747
  0
VERTEX
  8
0
 10
185.000000
 20
108.000000
 42
0.391747
  0
VERTEX
  8
0
 10
185.452665
 20
108.418956
 42
0.005057
  0
VERTEX
  8
0
 10
185.735714
 20
112.625000
 42
0.010080
  0
VERTEX
  8
0
 10
185.937980
 20
118.100683
 42
0.004191
  0
VERTEX
  8
0
 10
186.000000
 20
125.500000
 42
0.004191
  0
VERTEX
  8
0
 10
185.937980
 20
132.899317
 42
0.010080
  0
VERTEX
  8
0
 10
185.735714
 20
138.375000
 42
0.005057
  0
VERTEX
  8
0
 10
185.452665
 20
142.581044
 42
0.391747
  0
VERTEX
  8
0
 10
185.000000
 20
143.000000
 42
0.391747
  0
VERTEX
  8
0
 10
184.547335
 20
142.581044
 42
0.005057
  0
VERTEX
  8
0
 10
184.264286
 20
138.375000
 42
0.010080
  0
VERTEX
  8
0
 10
184.062020
 20
132.899317
 42
0.004191
  0
SEQEND
  0
POLYLINE
  8
0
 66
1
 70
1
  0
VERTEX
  8
0
 10
95.445744
 20
102.719207
 42
0.087612
  0
VERTEX
  8
0
 10
95.254680
 20
101.734396
 42
0.001513
  0
VERTEX
  8
0
 10
95.178787
 20
96.246237
 42
0.003790
  0
VERTEX
  8
0
 10
95.158144
 20
89.839455
 42
0.002509
  0
VERTEX
  8
0
 10
95.227129
 20
82.482127
 42
0.002103
  0
VERTEX
  8
0
 10
95.435733
 20
71.267603
 42
0.020419
  0
VERTEX
  8
0
 10
95.737938
 20
66.525181
 42
0.052027
  0
VERTEX
  8
0
 10
96.257840
 20
64.067040
 42
0.273687
  0
VERTEX
  8
0
 10
97.250000
 20
63.189596
 42
0.370927
  0
VERTEX
  8
0
 10
98.237414
 20
63.755692
 42
0.063480
  0
VERTEX
  8
0
 10
98.732821
 20
66.045699
 42
0.019898
  0
VERTEX
  8
0
 10
98.958132
 20
70.890731
 42
0.001670
  0
VERTEX
  8
0
 10
99.000000
 20
83.426676
 42
0.002060
  0
VERTEX
  8
0
 10
98.952131
 20
95.045647
 42
0.016516
  0
VERTEX
  8
0
 10
98.731391
 20
100.391386
 42
0.032511
  0
VERTEX
  8
0
 10
98.322949
 20
103.304530
 42
0.355566
  0
VERTEX
  8
0
 10
97.468615
 20
104.000000
 42
0.076493
  0
VERTEX
  8
0
 10
96.846456
 20
103.904258
 42
0.064857
  0
VERTEX
  8
0
 10
96.242701
 20
103.623767
 42
0.066802
  0
VERTEX
  8
0
 10
95.747973
 20
103.208880
 42
0.093555
  0
SEQEND
  0
POLYLINE
  8
0
 66
1
 70
1
  0
VERTEX
  8
0
 10
272.000000
 20
83.500000
 42
0.002122
  0
VERTEX
  8
0
 10
272.048580
 20
72.053506
 42
0.016140
  0
VERTEX
  8
0
 10
272.268293
 20
66.666667
 42
0.029936
  0
VERTEX
  8
0
 10
272.666708
 20
63.686378
 42
0.358821
  0
VERTEX
  8
0
 10
273.500000
 20
63.000000
 42
0.358821
  0
VERTEX
  8
0
 10
274.333292
 20
63.686378
 42
0.029936
  0
VERTEX
  8
0
 10
274.731707
 20
66.666667
 42
0.016140
  0
VERTEX
  8
0
 10
274.951420
 20
72.053506
 42
0.002122
  0
VERTEX
  8
0
 10
275.000000
 20
83.500000
 42
0.002122
  0
VERTEX
  8
0
 10
274.951420
 20
94.946494
 42
0.016140
  0
VERTEX
  8
0
 10
274.731707
 20
100.333333
 42
0.029936
  0
VERTEX
  8
0
 10
274.333292
 20
103.313622
 42
0.358821
  0
VERTEX
  8
0
 10
273.500000
 20
104.000000
 42
0.358821
  0
VERTEX
  8
0
 10
272.666708
 20
103.313622
 42
0.029936
  0
VERTEX
  8
0
 10
272.268293
 20
100.333333
 42
0.016140
  0
VERTEX
  8
0
 10
272.048580
 20
94.946494
 42
0.002122
  0
SEQEND
  0
POLYLINE
  8
0
 66
1
 70
1
  0
VERTEX
  8
0
 10
184.000000
 20
89.500000
 42
0.011522
  0
VERTEX
  8
0
 10
184.068623
 20
86.522473
 42
0.021620
  0
VERTEX
  8
0
 10
184.283333
 20
84.125000
 42
0.018508
  0
VERTEX
  8
0
 10
184.590162
 20
82.332853
 42
0.354925
  0
VERTEX
  8
0
 10
185.000000
 20
82.000000
 42
0.354925
  0
VERTEX
  8
0
 10
185.409838
 20
82.332853
 42
0.018508
  0
VERTEX
  8
0
 10
185.716667
 20
84.125000
 42
0.021620
  0
VERTEX
  8
0
 10
185.931377
 20
86.522473
 42
0.011522
  0
VERTEX
  8
0
 10
186.000000
 20
89.500000
 42
0.011522
  0
VERTEX
  8
0
 10
185.931377
 20
92.477527
 42
0.021620
  0
VERTEX
  8
0
 10
185.716667
 20
94.875000
 42
0.018508
  0
VERTEX
  8
0
 10
185.409838
 20
96.667147
 42
0.354925
  0
VERTEX
  8
0
 10
185.000000
 20
97.000000
 42
0.354925
  0
VERTEX
  8
0
 10
184.590162
 20
96.667147
 42
0.018508
  0
VERTEX
  8
0
 10
184.283333
 20
94.875000
 42
0.021620
  0
VERTEX
  8
0
 10
184.068623
 20
92.477527
 42
0.011522
  0
SEQEND
  0
ENDSEC
  0
EOF
